<svg xmlns="http://www.w3.org/2000/svg" viewBox="0 0 200 200"><defs><style>.a{fill:#243041;}.b{fill:#d2d9dd;}</style></defs><title>Close</title><circle class="a" cx="100" cy="100" r="100"/><path class="b" d="M116.72,98.89,159.91,55.7a10.56,10.56,0,0,0,0-14.94h0a10.56,10.56,0,0,0-14.94,0L101.78,84A2,2,0,0,1,99,84L55.76,40.77a10.56,10.56,0,0,0-14.94,0h0a10.56,10.56,0,0,0,0,14.94L84,98.89a2,2,0,0,1,0,2.83L40.83,144.91a10.56,10.56,0,0,0,0,14.94h0a10.56,10.56,0,0,0,14.94,0L99,116.66a2,2,0,0,1,2.83,0L145,159.85a10.56,10.56,0,0,0,14.94,0h0a10.56,10.56,0,0,0,0-14.94l-43.19-43.19A2,2,0,0,1,116.72,98.89Z"/></svg>