<?xml version="1.0" encoding="utf-8"?>
<!-- Generator: Adobe Illustrator 21.0.2, SVG Export Plug-In . SVG Version: 6.00 Build 0)  -->
<svg version="1.1" id="Ebene_1" xmlns="http://www.w3.org/2000/svg" xmlns:xlink="http://www.w3.org/1999/xlink" x="0px" y="0px"
	 viewBox="0 0 200 200" style="enable-background:new 0 0 200 200;" xml:space="preserve">
<style type="text/css">
	.st0{fill:#243041;}
	.st1{fill:#D2D9DD;}
</style>
<title>New Comment</title>
<circle class="st0" cx="100" cy="100" r="100"/>
<path class="st1" d="M122.3,41.3h-28C63.6,41.4,38.7,66.3,38.7,97l0,0c0,10.6,3.1,21.1,8.9,30l-12.9,21.6c-2.1,2.3-2,5.9,0.3,8
	c2.2,2,5.6,2,7.7,0l20.7-13.5c9.2,6.2,20,9.5,31,9.5h28c30.7-0.1,55.5-24.9,55.6-55.6l0,0C177.9,66.3,153,41.4,122.3,41.3z"/>
<path class="st0" d="M142.6,84.7h-22.1V62.6c0-1.1-0.9-2.1-2.1-2.1h-20c-1.1,0-2.1,0.9-2.1,2.1v22.1H74.2c-1.1,0-2.1,0.9-2.1,2.1v20
	c0,1.1,0.9,2.1,2.1,2.1h22.1V131c0,1.1,1,2,2.1,2h20c1.1,0,2.1-0.9,2.1-2.1v-22.1h22.1c1.1,0,2.1-0.9,2.1-2.1v-20
	C144.6,85.6,143.7,84.7,142.6,84.7z"/>
</svg>
