<svg xmlns="http://www.w3.org/2000/svg" width="100" height="100" viewBox="0 0 100 100"><defs><style>.a{fill:#e0ff12;}</style></defs><title>Zeichenfläche 1 Kopie 3</title><path class="a" d="M88.66,93.79H12.43A4,4,0,0,1,8.5,90.59C8.45,90.33,8.42,89,8.42,89a4,4,0,0,1,4-4H88.66a4,4,0,0,1,3.93,3.21c.05.26.08,1.59.08,1.59A4,4,0,0,1,88.66,93.79Zm4-64.4s0-19.72-.08-20a4,4,0,0,0-3.93-3.21H12.43a4,4,0,0,0-4,4s0,19.72.08,20a4,4,0,0,0,3.93,3.21H88.66A4,4,0,0,0,92.67,29.39ZM30.45,38.8a4.56,4.56,0,0,0-3.22,7.78L45.88,65.24a6.6,6.6,0,0,0,9.33,0L73.87,46.58a4.56,4.56,0,0,0-3.29-7.78C69.43,38.82,31.61,38.8,30.45,38.8ZM46.43,85h0Z"/></svg>