<svg xmlns="http://www.w3.org/2000/svg" viewBox="0 0 200 200"><defs><style>.a{fill:#243041;}.b{fill:#d2d9dd;}</style></defs><title>Details</title><circle class="a" cx="100" cy="100" r="100"/><path class="b" d="M164,152.4A10.62,10.62,0,0,1,153.38,163a9.86,9.86,0,0,1-7.46-3.15L117.47,131.5a56.8,56.8,0,0,1-33.09,10.29,57.41,57.41,0,0,1-22.69-4.6,57.17,57.17,0,0,1-31.11-31.11,58.21,58.21,0,0,1,0-45.37A57.22,57.22,0,0,1,61.69,29.6a58.21,58.21,0,0,1,45.37,0,57.27,57.27,0,0,1,31.11,31.11,57.43,57.43,0,0,1,4.6,22.69,56.77,56.77,0,0,1-10.29,33.09l28.45,28.45A10.17,10.17,0,0,1,164,152.4Zm-53.38-42.75a35.77,35.77,0,0,0,10.91-26.25,35.77,35.77,0,0,0-10.91-26.25A35.77,35.77,0,0,0,84.37,46.23,35.77,35.77,0,0,0,58.12,57.15a35.79,35.79,0,0,0-10.9,26.25,35.79,35.79,0,0,0,10.9,26.25,35.79,35.79,0,0,0,26.25,10.9A35.79,35.79,0,0,0,110.62,109.65Zm.29-28.91V86a2.69,2.69,0,0,1-2.65,2.66H89.68v18.58A2.71,2.71,0,0,1,87,109.94H81.72a2.56,2.56,0,0,1-1.87-.79,2.53,2.53,0,0,1-.79-1.86V88.7H60.48a2.53,2.53,0,0,1-1.86-.79A2.56,2.56,0,0,1,57.83,86V80.74a2.71,2.71,0,0,1,2.66-2.66H79.06V59.5a2.69,2.69,0,0,1,2.66-2.65H87a2.7,2.7,0,0,1,2.66,2.65V78.08h18.58a2.7,2.7,0,0,1,2.65,2.66Z"/></svg>