<svg xmlns="http://www.w3.org/2000/svg" viewBox="0 0 200 200"><defs><style>.a{fill:#243041;}.b{fill:#d2d9dd;}</style></defs><title>Collapse Section</title><circle class="a" cx="100" cy="100" r="100"/><path class="b" d="M159.82,43.63s0,1.89-.12,2.27a5.74,5.74,0,0,1-5.6,4.58H45.54a5.74,5.74,0,0,1-5.71-5.73s0-1.89.12-2.27a5.74,5.74,0,0,1,5.6-4.58H154.11A5.74,5.74,0,0,1,159.82,43.63Zm-5.71,80.46H45.54a5.74,5.74,0,0,0-5.6,4.58c-.08.37-.12,28.52-.12,28.52a5.74,5.74,0,0,0,5.71,5.73H154.11a5.74,5.74,0,0,0,5.6-4.58c.08-.37.12-28.52.12-28.52A5.74,5.74,0,0,0,154.11,124.09Zm-25.76-7.7a6.51,6.51,0,0,0,4.68-11.1L106.47,78.66a9.39,9.39,0,0,0-13.29,0L66.61,105.28a6.51,6.51,0,0,0,4.59,11.1C72.86,116.39,126.72,116.36,128.35,116.39ZM94,50.48h0Z"/></svg>