<svg xmlns="http://www.w3.org/2000/svg" viewBox="0 0 200 200"><defs><style>.a{fill:#243041;}.b{fill:#d2d9dd;}</style></defs><title>Expand Section</title><circle class="a" cx="100" cy="100" r="100"/><path class="b" d="M154.11,50.43H45.54a5.73,5.73,0,0,1-5.6-4.56c-.08-.37-.12-2.26-.12-2.26a5.73,5.73,0,0,1,5.71-5.7H154.11a5.73,5.73,0,0,1,5.6,4.56c.08.37.12,2.26.12,2.26A5.73,5.73,0,0,1,154.11,50.43Zm5.71,106.78s0-28-.12-28.41a5.73,5.73,0,0,0-5.6-4.56H45.54a5.73,5.73,0,0,0-5.71,5.7s0,28,.12,28.41a5.73,5.73,0,0,0,5.6,4.56H154.11A5.73,5.73,0,0,0,159.82,157.2ZM71.2,58.25a6.48,6.48,0,0,0-4.59,11.06L93.18,95.84a9.41,9.41,0,0,0,13.29,0L133,69.32a6.48,6.48,0,0,0-4.68-11.06C126.72,58.28,72.86,58.25,71.2,58.25ZM94,123.92h0Z"/></svg>