<svg xmlns="http://www.w3.org/2000/svg" viewBox="0 0 200 200"><defs><style>.a{fill:#243041;}.b{fill:#d2d9dd;}</style></defs><title>Link</title><circle class="a" cx="100" cy="100" r="100"/><path class="b" d="M94.38,92.82h0ZM77,92.84ZM123,110.13h0l2.33,0q2,0,2.74,0a21.08,21.08,0,0,0,2.17-.26,7.18,7.18,0,0,0,2.45-.8,9.13,9.13,0,0,0,2-1.53,8.62,8.62,0,0,0,0-12.24,9.21,9.21,0,0,0-2-1.53,7.32,7.32,0,0,0-2.45-.79c-1-.15-1.68-.23-2.17-.25s-1.4,0-2.74,0l-2.35,0h0l-17.37,0H94.38L77,92.84h0l-2.35,0q-2,0-2.74,0c-.49,0-1.21.11-2.17.26a7.32,7.32,0,0,0-2.45.8,9.21,9.21,0,0,0-2,1.53,8.62,8.62,0,0,0,0,12.24,9.13,9.13,0,0,0,2,1.53,7.18,7.18,0,0,0,2.45.79,21.11,21.11,0,0,0,2.17.25q.73,0,2.74,0l2.39,0h0l17.34,0h11.22l17.34,0h0Zm-48.52,6.62a8.31,8.31,0,0,1-6.05,2.62l-26.51,0a8.34,8.34,0,0,1-6.12-2.54,8.24,8.24,0,0,1-2.49-6.05l0-18.67a8.71,8.71,0,0,1,2.61-6.06A8.35,8.35,0,0,1,42,83.51l26.32,0a8.35,8.35,0,0,1,6.12,2.54,7.63,7.63,0,0,1,.88,1.05,2.8,2.8,0,0,0,2.31,1.15H90.4a2.92,2.92,0,0,0,2.78-3.79A25.57,25.57,0,0,0,86.65,73.9a24.89,24.89,0,0,0-18.24-7.63l-26.32,0a24.71,24.71,0,0,0-18.41,7.6A24.89,24.89,0,0,0,16,92.08l0,18.67a24.6,24.6,0,0,0,7.54,18.35,25,25,0,0,0,18.37,7.63l26.51,0A25,25,0,0,0,86.77,129a25.33,25.33,0,0,0,6.44-10.51,2.92,2.92,0,0,0-2.78-3.79H77.51a3,3,0,0,0-2.35,1.21A7.87,7.87,0,0,1,74.46,116.75Zm102-42.88a25,25,0,0,0-18.37-7.63l-26.52,0a25,25,0,0,0-18.35,7.67,25.32,25.32,0,0,0-6.47,10.6,2.9,2.9,0,0,0,2.76,3.75h12.85a2.91,2.91,0,0,0,2.35-1.23,7.68,7.68,0,0,1,.77-.9,8.35,8.35,0,0,1,6.12-2.56l26.52,0a8.35,8.35,0,0,1,6.12,2.54,8.24,8.24,0,0,1,2.49,6.05l0,18.68a8.68,8.68,0,0,1-2.67,6,8.31,8.31,0,0,1-6.05,2.62l-26.32,0a8.34,8.34,0,0,1-6.12-2.54,7.54,7.54,0,0,1-.78-.92,2.91,2.91,0,0,0-2.35-1.23H109.58a2.9,2.9,0,0,0-2.75,3.77,25.57,25.57,0,0,0,6.53,10.57,24.88,24.88,0,0,0,18.24,7.63l26.32,0a26,26,0,0,0,26-25.84l0-18.68A24.6,24.6,0,0,0,176.46,73.86ZM77,92.84h0Z"/></svg>