<svg xmlns="http://www.w3.org/2000/svg" viewBox="0 0 200 200"><defs><style>.a{fill:#243041;}.b{fill:#d2d9dd;}</style></defs><title>Grammar</title><circle class="a" cx="100" cy="100" r="100"/><path class="b" d="M68.26,102.26q0,2.2.1,3.8t.2,3.4l6.9,1v2.1a37,37,0,0,1-5.55,2.3,43.73,43.73,0,0,1-5.85,1.5h-2.5a15.32,15.32,0,0,1-1.2-5.05q-.2-2.75-.3-6.05h-.5A13.83,13.83,0,0,1,58,109.32,13.57,13.57,0,0,1,55,113,15,15,0,0,1,45,116.57a13.77,13.77,0,0,1-10-3.7,12.85,12.85,0,0,1-3.85-9.7A14,14,0,0,1,33,95.61,12.54,12.54,0,0,1,38.45,91a31.13,31.13,0,0,1,8.9-2.45q5.3-.75,12.3-1.15a57.58,57.58,0,0,0,.25-7.75,18.61,18.61,0,0,0-1.1-5.9A8.27,8.27,0,0,0,56,69.9a8,8,0,0,0-4.85-1.35q-1.4,0-3.15.15a11.68,11.68,0,0,0-3.45.85l-4.7,12h-2.6q-1-3-1.75-6.2a38.35,38.35,0,0,1-.95-6.3A33.79,33.79,0,0,1,43,65.45a38.47,38.47,0,0,1,10.35-1.3,19.22,19.22,0,0,1,8.15,1.45,11.54,11.54,0,0,1,4.65,3.75,12.8,12.8,0,0,1,2.1,5.1,31.85,31.85,0,0,1,.5,5.6q0,6-.25,11.55T68.26,102.26ZM49,110.37a9.31,9.31,0,0,0,4.4-1,11.83,11.83,0,0,0,3.2-2.4,14.59,14.59,0,0,0,2.1-2.85,13.11,13.11,0,0,0,1.1-2.45V91.16a61.39,61.39,0,0,0-9.5.6,16,16,0,0,0-5.8,1.9,6.93,6.93,0,0,0-2.9,3.25,11.61,11.61,0,0,0-.8,4.45A9.36,9.36,0,0,0,43,108,7.82,7.82,0,0,0,49,110.37ZM83,47.14l-7.6-.8v-2.6a38.06,38.06,0,0,1,7-2.1l7.15-1.5H92V75.25h.2a16.15,16.15,0,0,1,5.75-8.1,14.7,14.7,0,0,1,9-3q9.1,0,14,6.2t4.85,19.11q0,13.2-6.65,20t-19.16,6.8a36.15,36.15,0,0,1-5-.35q-2.5-.35-4.8-.85a29.36,29.36,0,0,1-4.15-1.2,16.32,16.32,0,0,1-3-1.4Zm21.21,23.21a10.13,10.13,0,0,0-7.8,3.25A19.81,19.81,0,0,0,92,81.86v27.91a15.74,15.74,0,0,0,4.4,1.55,26.49,26.49,0,0,0,5.5.55,11.86,11.86,0,0,0,10.4-5.75q3.8-5.75,3.8-16.66a40.64,40.64,0,0,0-.65-7.4,20,20,0,0,0-2.1-6.1,11.64,11.64,0,0,0-3.7-4.1A9.61,9.61,0,0,0,104.18,70.35Zm65.82,38a14.49,14.49,0,0,1-5.85,5.85,18.51,18.51,0,0,1-9.45,2.35,26.07,26.07,0,0,1-10.25-1.85,19.05,19.05,0,0,1-7.25-5.3,22.85,22.85,0,0,1-4.35-8.3,37.39,37.39,0,0,1-1.45-10.75q0-12.7,6.2-19.46t16.91-6.75a40.88,40.88,0,0,1,8.75.85,26.88,26.88,0,0,1,6.55,2.25,74.13,74.13,0,0,1-1.1,7.4,32.15,32.15,0,0,1-2,6.8H164l-4.2-11.9a5,5,0,0,0-1.6-.75,12.55,12.55,0,0,0-3-.25q-6.8,0-10.5,5T141,90.26a26.29,26.29,0,0,0,1.05,7.4,19.8,19.8,0,0,0,3.2,6.45,15.61,15.61,0,0,0,13,6.25,16.7,16.7,0,0,0,10.5-3.4Zm-1.31,25.55a4.48,4.48,0,0,0-6.34,0L145.77,150.5l-7.57-7.57,0,0-18.33-18.33a6.49,6.49,0,0,0-9.17,0L92.34,142.9l0,0-7.56,7.56-7.57-7.57,0,0L58.82,124.56a6.49,6.49,0,0,0-9.17,0L31.31,142.9a4.48,4.48,0,0,0,6.34,6.33l16.58-16.58,7.57,7.57,0,0,18.33,18.33a6.49,6.49,0,0,0,9.17,0l18.33-18.33,0,0,7.56-7.56,7.57,7.57,0,0,18.33,18.33a6.49,6.49,0,0,0,9.17,0l18.33-18.33A4.48,4.48,0,0,0,168.69,133.91Z"/></svg>