<svg xmlns="http://www.w3.org/2000/svg" viewBox="0 0 200 200"><defs><style>.a{fill:#243041;}.b{fill:#d2d9dd;}.c{fill:#687d92;}</style></defs><title>New Edit</title><circle class="a" cx="100" cy="100" r="100" transform="translate(-3.61 196.26) rotate(-87.9)"/><path class="b" d="M55.29,136.86a7,7,0,0,1,1.1-2.32l59.39-94.92,5.82,3.68,14.2,9,5.69,3.6L82.16,150.7a4.93,4.93,0,0,1-1.77,2L71,159.93l-6.27-3.79-6-3.59-6.06-3.66Z"/><path class="c" d="M54.54,150.59,60.73,154h0l6.08,3.37h0L73.22,161l-13.16,11a6,6,0,0,1-3.38,1.34,5.24,5.24,0,0,1-5.07-6.07Z"/><path class="c" d="M135.8,52.27l-14.2-9h0l-5.82-3.68,8.84-14.13a7.11,7.11,0,0,1,6.2-3.15,5.74,5.74,0,0,1,3.34,1.14l14.2,9a6.53,6.53,0,0,1,3.17,5.86,5.69,5.69,0,0,1-1.14,3.33L141.5,55.87l-5.69-3.6Z"/><circle class="c" cx="130.2" cy="121.62" r="39.33"/><path class="b" d="M156.44,131.12H139.07v17.37a1.63,1.63,0,0,1-1.63,1.63H121.69a1.63,1.63,0,0,1-1.63-1.63V131.12H102.69a1.63,1.63,0,0,1-1.63-1.63V113.75a1.63,1.63,0,0,1,1.63-1.63h17.37V94.75a1.63,1.63,0,0,1,1.63-1.63h15.74a1.63,1.63,0,0,1,1.63,1.63v17.37h17.37a1.63,1.63,0,0,1,1.63,1.63v15.74A1.63,1.63,0,0,1,156.44,131.12Z"/></svg>