<svg xmlns="http://www.w3.org/2000/svg" viewBox="0 0 200 200"><defs><style>.a{fill:#243041;}.b{fill:#d2d9dd;}</style></defs><title>List</title><circle class="a" cx="100" cy="100" r="100"/><path class="b" d="M164.8,62.59H69.28a.87.87,0,0,1-.87-.87V48.09a.87.87,0,0,1,.87-.87H164.8a.87.87,0,0,1,.87.87V61.72A.87.87,0,0,1,164.8,62.59Zm1.2,45.23V94.18a.87.87,0,0,0-.87-.87H69.28a.87.87,0,0,0-.87.87v13.63a.87.87,0,0,0,.87.87h95.85A.87.87,0,0,0,166,107.82Zm-.33,46.1V140.28a.87.87,0,0,0-.87-.87H69.28a.87.87,0,0,0-.87.87v13.63a.87.87,0,0,0,.87.87H164.8A.87.87,0,0,0,165.67,153.91ZM45.33,41.5A13.4,13.4,0,1,0,58.67,54.9,13.37,13.37,0,0,0,45.33,41.5Zm0,46.1A13.4,13.4,0,1,0,58.67,101,13.37,13.37,0,0,0,45.33,87.6Zm0,46.1a13.4,13.4,0,1,0,13.33,13.4A13.37,13.37,0,0,0,45.33,133.69Z"/></svg>