<svg xmlns="http://www.w3.org/2000/svg" viewBox="0 0 200 200"><defs><style>.a{fill:#243041;}.b{fill:#d2d9dd;}</style></defs><title>Headline 3</title><circle class="a" cx="100" cy="100" r="100"/><path class="b" d="M107.06,146.79H73.21v-4.85q1.53-.9,3.19-1.66a28,28,0,0,1,3.83-1.41V113q0-11-2.11-16.2t-8.24-5.19a11.92,11.92,0,0,0-8.68,3.52,20.24,20.24,0,0,0-5.11,8.13v35.59A28.64,28.64,0,0,1,59.74,140a16.42,16.42,0,0,1,3.38,1.92v4.85H29.28v-4.85a35.56,35.56,0,0,1,8.43-3.07V61.22L28,60.2V55.34a40.7,40.7,0,0,1,4.92-1.53q3-.77,6.32-1.34t6.64-1q3.32-.45,5.88-.7H56.1V95.83h.13a23.09,23.09,0,0,1,3.45-5.56,26.45,26.45,0,0,1,4.92-4.6,24,24,0,0,1,5.94-3.13A19.83,19.83,0,0,1,77.3,81.4a31.52,31.52,0,0,1,9.13,1.22,14.13,14.13,0,0,1,6.7,4.29,20.54,20.54,0,0,1,4.09,8.26,51.22,51.22,0,0,1,1.41,13.12v30.59q2.17.51,4.34,1.15a14.92,14.92,0,0,1,4.09,1.92ZM141.41,140a13.21,13.21,0,0,0,5.75-1.34,16.5,16.5,0,0,0,5-3.77,18.72,18.72,0,0,0,3.58-5.75,19,19,0,0,0,1.34-7.15,17.49,17.49,0,0,0-1.47-7.47,15.39,15.39,0,0,0-3.83-5.17,15.07,15.07,0,0,0-5.43-3,20.43,20.43,0,0,0-6.13-1h-7.41V100.3l19.16-25,4.34-4.47v-.51l-6.9.77H130.17l-5,13h-4.34q-.64-2.68-1.34-6.38t-1.28-7.41q-.57-3.7-.89-7.15T117,57.39H172.7v6.26L150.61,90.59l-5.49,5.62v.25l4.34-.89a31.68,31.68,0,0,1,10.79,2.23,22.88,22.88,0,0,1,13,13.22,27.13,27.13,0,0,1,1.72,9.83,23.9,23.9,0,0,1-2.74,11.49,27.2,27.2,0,0,1-7.34,8.68,32.65,32.65,0,0,1-10.73,5.43,44.41,44.41,0,0,1-12.9,1.85,52.85,52.85,0,0,1-14.88-2.17,36.59,36.59,0,0,1-6.13-2.43,23.14,23.14,0,0,1-4.66-3.06l4.72-13.28H124q.77.9,2.11,2.36t2.81,3.13q1.47,1.66,2.87,3.32t2.43,2.81q1.28.26,2.87.64A19,19,0,0,0,141.41,140Z"/></svg>