<svg xmlns="http://www.w3.org/2000/svg" viewBox="0 0 200 200"><defs><style>.a{fill:#243041;}.b{fill:#d2d9dd;}</style></defs><title>Headline 1</title><circle class="a" cx="100" cy="100" r="100"/><path class="b" d="M113.58,151.12H77.8V146q1.62-.95,3.38-1.76a29.78,29.78,0,0,1,4-1.49V115.4q0-11.64-2.23-17.12t-8.71-5.48a12.6,12.6,0,0,0-9.18,3.72,21.38,21.38,0,0,0-5.4,8.6v37.63A30.09,30.09,0,0,1,63.55,144a17.27,17.27,0,0,1,3.58,2v5.13H31.35V146a37.58,37.58,0,0,1,8.91-3.25V60.65L30,59.57V54.44a42.93,42.93,0,0,1,5.2-1.62q3.17-.81,6.68-1.42t7-1.08q3.51-.47,6.21-.74h4.59V97.24h.14a24.46,24.46,0,0,1,3.64-5.87,28.08,28.08,0,0,1,5.2-4.86A25.38,25.38,0,0,1,75,83.2,21,21,0,0,1,82.12,82a33.33,33.33,0,0,1,9.66,1.29,15,15,0,0,1,7.09,4.53,21.74,21.74,0,0,1,4.32,8.73,54.07,54.07,0,0,1,1.49,13.87v32.34q2.3.54,4.59,1.22a15.83,15.83,0,0,1,4.32,2Z"/><path class="b" d="M168,151.12H121.28v-5.81q3.37-1.48,6.82-2.63t7-2v-62l.54-8a37.9,37.9,0,0,1-7.83,1.62,64,64,0,0,1-8.37.27l-.67-5a152.51,152.51,0,0,0,15.59-5.13A98.28,98.28,0,0,0,149.91,55h4.59v85.74q3.37.81,6.75,2t6.75,2.63Z"/></svg>