<svg xmlns="http://www.w3.org/2000/svg" viewBox="0 0 200 200"><defs><style>.a{fill:#243041;}.b{fill:#d2d9dd;}</style></defs><title>Remark</title><circle class="a" cx="100" cy="100" r="100"/><path class="b" d="M115.93,144.23a21.89,21.89,0,0,0-31.14,0,22.62,22.62,0,0,0-6.24,16.25,22.28,22.28,0,0,0,6.24,16,21.89,21.89,0,0,0,31.14,0,22.29,22.29,0,0,0,6.24-16A22.62,22.62,0,0,0,115.93,144.23Z"/><path class="b" d="M88.19,125.08a.91.91,0,0,0,.9.85h22.55a.91.91,0,0,0,.9-.84l4.93-71.95,1.17-31.19a.91.91,0,0,0-.91-.94H83a.91.91,0,0,0-.91.94l1.17,31.24Z"/></svg>