<svg xmlns="http://www.w3.org/2000/svg" viewBox="0 0 200 200"><defs><style>.a{fill:#243041;}.b{fill:#d2d9dd;}.c{fill:#687d92;}</style></defs><title>Edit</title><circle class="a" cx="100" cy="100" r="100"/><path class="b" d="M56.68,138.48a7,7,0,0,1,1-2.36l55.86-97,6,3.46L134,51l5.82,3.39L84,151.32a4.93,4.93,0,0,1-1.69,2L73.22,161l-6.41-3.56L60.73,154l-6.19-3.43Z"/><path class="c" d="M54.54,150.59,60.73,154h0l6.08,3.37h0L73.22,161l-13.16,11a6,6,0,0,1-3.38,1.34,5.24,5.24,0,0,1-5.07-6.07Z"/><path class="c" d="M134,51,119.5,42.55h0l-6-3.46,8.32-14.44a7.11,7.11,0,0,1,6.08-3.37,5.74,5.74,0,0,1,3.38,1l14.52,8.44a6.53,6.53,0,0,1,3.38,5.74,5.69,5.69,0,0,1-1,3.37l-8.37,14.53L134,51Z"/></svg>