<svg xmlns="http://www.w3.org/2000/svg" width="100" height="100" viewBox="0 0 100 100"><defs><style>.a{fill:#e0ff12;}</style></defs><title>Zeichenfläche 1 Kopie 8</title><path class="a" d="M78.23,56.43a15.64,15.64,0,0,0-4-5,17.8,17.8,0,0,0-5.49-3c-1-.32-1.91-.6-2.85-.82a19.74,19.74,0,0,0,2.52-1.07,17.19,17.19,0,0,0,4.52-3.29A14.48,14.48,0,0,0,77,33a14.42,14.42,0,0,0-2-7.93,13.75,13.75,0,0,0-5.33-4.81A24.41,24.41,0,0,0,62.28,18a55.2,55.2,0,0,0-8.44-.64c-2.64,0-5,.09-7,.27s-4.13.27-6.35.27H25.19v4.77l.45.25a22.84,22.84,0,0,0,3.71,1.63,31.76,31.76,0,0,0,3.16.91v49.1a16.56,16.56,0,0,0-3.14.84,24.84,24.84,0,0,0-3.75,1.76l-.43.25v4.76h11.5c.94,0,2.11,0,3.49.09l4.33.18,4.47.18c1.51.06,2.9.09,4.14.09a45.73,45.73,0,0,0,9.83-1,27.42,27.42,0,0,0,8.53-3.37,18.27,18.27,0,0,0,6-6,16.46,16.46,0,0,0,2.27-8.76A15.06,15.06,0,0,0,78.23,56.43Zm-26-31.56a10.17,10.17,0,0,1,7,2.41c1.76,1.58,2.66,4.14,2.66,7.62a10.63,10.63,0,0,1-2,6.33,11.89,11.89,0,0,1-5.15,4.08c-.83.11-1.74.21-2.71.29s-2,.13-3,.13h-2V25.12c.55-.07,1.15-.12,1.78-.16C49.83,24.9,51,24.87,52.23,24.87Zm11,33.68a11.92,11.92,0,0,1,1,5.2,11.51,11.51,0,0,1-3,8.29c-2,2.07-4.68,3.08-8.22,3.08A34.44,34.44,0,0,1,49,75c-.64-.08-1.27-.18-1.88-.3V53.28H51a29.64,29.64,0,0,1,5.47.48,10.77,10.77,0,0,1,4.13,1.65A8.09,8.09,0,0,1,63.24,58.55Z"/></svg>