<svg xmlns="http://www.w3.org/2000/svg" viewBox="0 0 200 200"><defs><style>.a{fill:#243041;}.b{fill:#d2d9dd;}</style></defs><title>Meaning</title><circle class="a" cx="100" cy="100" r="100"/><path class="b" d="M160,114.52a11.07,11.07,0,0,1,5.46,7.11,11.56,11.56,0,0,1-1.15,8.94l-5.87,10.08a11.07,11.07,0,0,1-7.11,5.45,11.55,11.55,0,0,1-8.94-1.15l-24.39-14v28.14a11.89,11.89,0,0,1-11.73,11.73H94.5a11.89,11.89,0,0,1-11.73-11.73V130.93L58.38,145a11.56,11.56,0,0,1-8.94,1.15,11.06,11.06,0,0,1-7.11-5.45l-5.87-10.08a11.56,11.56,0,0,1-1.15-8.94,11.07,11.07,0,0,1,5.45-7.11L65.16,100.4,40.78,86.29a11.06,11.06,0,0,1-5.45-7.11,11.56,11.56,0,0,1,1.15-8.94l5.87-10.08a11.06,11.06,0,0,1,7.11-5.46,11.58,11.58,0,0,1,8.94,1.15l24.39,14V41.73A11.89,11.89,0,0,1,94.5,30h11.73A11.89,11.89,0,0,1,118,41.73V69.88l24.39-14a11.57,11.57,0,0,1,8.94-1.15,11.08,11.08,0,0,1,7.11,5.46l5.87,10.08a11.56,11.56,0,0,1,1.15,8.94A11.07,11.07,0,0,1,160,86.29L135.57,100.4Z"/></svg>