<svg xmlns="http://www.w3.org/2000/svg" viewBox="0 0 200 200"><defs><style>.a{fill:#243041;}.b{fill:#d2d9dd;}</style></defs><title>Phrasing</title><circle class="a" cx="100" cy="100" r="100"/><path class="b" d="M37.29,152.05a20.33,20.33,0,0,0,10.54-6q3.8-4.32,3.45-9a16.38,16.38,0,0,0-5.62-4.41,53.5,53.5,0,0,0-7.17-2.85,13.67,13.67,0,0,1-.26-6.31,16.33,16.33,0,0,1,2.33-5.88A19.5,19.5,0,0,1,44.63,113a9.74,9.74,0,0,1,4.75-2.25,22.94,22.94,0,0,1,6.91,1.47,19.83,19.83,0,0,1,6.13,3.63,17.34,17.34,0,0,1,4.32,5.87,19.79,19.79,0,0,1,1.64,8.38,24,24,0,0,1-2.07,9.5,32.78,32.78,0,0,1-5.79,9A37,37,0,0,1,40.39,160Zm35.42,0a20.32,20.32,0,0,0,10.54-6q3.8-4.32,3.46-9a16.37,16.37,0,0,0-5.61-4.41,53.64,53.64,0,0,0-7.17-2.85,13.69,13.69,0,0,1-.26-6.31A16.31,16.31,0,0,1,76,117.58,19.48,19.48,0,0,1,80,113a9.73,9.73,0,0,1,4.75-2.25,22.94,22.94,0,0,1,6.91,1.47,19.85,19.85,0,0,1,6.13,3.63,17.37,17.37,0,0,1,4.32,5.87,19.79,19.79,0,0,1,1.64,8.38,24,24,0,0,1-2.07,9.5,32.78,32.78,0,0,1-5.79,9A37,37,0,0,1,75.81,160ZM127.58,48.59q-6.74,1.73-10.28,5.1a9.63,9.63,0,0,0-3.19,8,16.32,16.32,0,0,0,5.61,4.4A52.77,52.77,0,0,0,126.89,69a13.79,13.79,0,0,1,.26,6.31,16.38,16.38,0,0,1-2.33,5.87,19.45,19.45,0,0,1-4.06,4.58A9.73,9.73,0,0,1,116,88a23.19,23.19,0,0,1-7.08-1.47,18,18,0,0,1-6-3.71A19.49,19.49,0,0,1,98.65,77,17.32,17.32,0,0,1,97,69.32a24.61,24.61,0,0,1,2.07-9.93,28.44,28.44,0,0,1,5.79-8.55,34.44,34.44,0,0,1,8.9-6.48,38.46,38.46,0,0,1,11.4-3.71Zm35.42,0q-6.74,1.73-10.28,5.1a9.63,9.63,0,0,0-3.2,8,16.32,16.32,0,0,0,5.61,4.4A52.77,52.77,0,0,0,162.31,69a13.75,13.75,0,0,1,.26,6.31,16.33,16.33,0,0,1-2.33,5.87,19.4,19.4,0,0,1-4.06,4.58A9.72,9.72,0,0,1,151.43,88a23.2,23.2,0,0,1-7.09-1.47,18,18,0,0,1-6-3.71A19.49,19.49,0,0,1,134.06,77a17.31,17.31,0,0,1-1.64-7.69,24.57,24.57,0,0,1,2.07-9.93,28.39,28.39,0,0,1,5.79-8.55,34.49,34.49,0,0,1,8.9-6.48,38.44,38.44,0,0,1,11.4-3.71Z"/></svg>