<svg xmlns="http://www.w3.org/2000/svg" viewBox="0 0 200 200"><defs><style>.a{fill:#243041;}.b{fill:#d2d9dd;}</style></defs><title>Numbers</title><circle class="a" cx="100" cy="100" r="100"/><path class="b" d="M59.51,141H25.23v-3.4q2.93-1.29,5.93-2.29t6-1.7V76L37.67,69a31.18,31.18,0,0,1-6.81,1.82,40.4,40.4,0,0,1-7.28.41L23,68.46a104.47,104.47,0,0,0,11.15-4.4,50.29,50.29,0,0,0,10.68-6.63h2.93V133.6q2.93.7,5.87,1.7t5.87,2.29Z"/><path class="b" d="M79,81.72H76.05q-1.29-3.4-2.64-8t-2.29-8.69A31,31,0,0,1,81,59.48a36.77,36.77,0,0,1,12.44-2.05,27.87,27.87,0,0,1,10.1,1.64,19.55,19.55,0,0,1,7,4.46,17.44,17.44,0,0,1,4,6.51,23.2,23.2,0,0,1,1.29,7.69,33.33,33.33,0,0,1-3.05,13.5,80.67,80.67,0,0,1-7.57,13.44,114.94,114.94,0,0,1-9.8,12.27q-5.28,5.75-9.74,10.09l-4.93,4.58v.47l6.57-.71h20.19l5.75-13.15h2.93q.23,2.58.47,5.63t.41,6.16q.18,3.11.29,6t.12,5H69v-3.76l6.28-6.57Q79,126.8,83,122.1t7.92-10a98.63,98.63,0,0,0,7-10.74,72.42,72.42,0,0,0,5-10.86,30.58,30.58,0,0,0,1.94-10.33,23.15,23.15,0,0,0-.88-6.46,15.89,15.89,0,0,0-2.64-5.34,12.2,12.2,0,0,0-10.1-4.87,23.67,23.67,0,0,0-4.34.35,35.13,35.13,0,0,0-4.11,1.06Z"/><path class="b" d="M150.12,136.89a13,13,0,0,0,6.1-1.47,16.06,16.06,0,0,0,4.93-4,19.77,19.77,0,0,0,3.34-5.81,19.55,19.55,0,0,0,1.23-6.93,20,20,0,0,0-1.35-7.63,15.18,15.18,0,0,0-3.7-5.46,15.85,15.85,0,0,0-5.46-3.29,19.89,19.89,0,0,0-6.75-1.12h-7.63V98l19.72-26.41,4-4.11V67l-6.34.71H138.38l-4.58,12h-2.93q-.47-2.47-.88-5.28t-.76-5.58q-.35-2.76-.59-5.34t-.24-4.7h45.9v3.64L154.7,88.65l-5,5.17V94l4-.82a27.68,27.68,0,0,1,9.86,2.11,22.37,22.37,0,0,1,7.34,5,21.34,21.34,0,0,1,4.58,7.28,25.39,25.39,0,0,1,1.58,9.1,23.67,23.67,0,0,1-2.35,10.62,25.12,25.12,0,0,1-6.28,8.1,28.65,28.65,0,0,1-9,5.17,31.8,31.8,0,0,1-10.74,1.82,43.37,43.37,0,0,1-5.75-.41,44.45,44.45,0,0,1-6-1.23,46.68,46.68,0,0,1-5.46-1.88,17.85,17.85,0,0,1-4.28-2.47l3.29-10.56h2.35q.7.82,1.94,2.11l2.58,2.7q1.35,1.41,2.64,2.82t2.23,2.46l3.05.59A27.8,27.8,0,0,0,150.12,136.89Z"/></svg>