<svg xmlns="http://www.w3.org/2000/svg" viewBox="0 0 200 200"><defs><style>.a{fill:#243041;}.b{fill:#d2d9dd;}.c{fill:#687d92;}</style></defs><title>My Edits</title><circle class="a" cx="100" cy="100" r="100"/><path class="b" d="M120.47,56.13V31H53.88a4.84,4.84,0,0,0-4.83,4.83V166.17A4.84,4.84,0,0,0,53.88,171H145.6a4.84,4.84,0,0,0,4.83-4.83V61H125.3A4.84,4.84,0,0,1,120.47,56.13Z"/><path class="c" d="M120.47,31V56.13A4.84,4.84,0,0,0,125.3,61h25.13Z"/><path class="a" d="M133.77,133.1a5.48,5.48,0,0,0-.79-1.84L89.47,55.68l-4.63,2.69L73.53,65,69,67.59l43.47,75.51a3.84,3.84,0,0,0,1.32,1.57l7.11,5.93,5-2.77,4.74-2.63,4.82-2.67Z"/><path class="c" d="M135.44,142.53l-4.82,2.67h0l-4.74,2.63h0l-5,2.77,10.25,8.55a4.7,4.7,0,0,0,2.63,1,4.08,4.08,0,0,0,3.95-4.73Z"/><path class="c" d="M73.53,65l11.31-6.58h0l4.63-2.69L83,44.43a5.54,5.54,0,0,0-4.74-2.63,4.47,4.47,0,0,0-2.63.79L64.32,49.17a5.09,5.09,0,0,0-2.63,4.47,4.43,4.43,0,0,0,.79,2.63L69,67.59,73.53,65Z"/></svg>