<svg xmlns="http://www.w3.org/2000/svg" viewBox="0 0 200 200"><defs><style>.a{fill:#243041;}.b{fill:#d2d9dd;}</style></defs><title>Frequently asked questions</title><circle class="a" cx="100" cy="100" r="100"/><path class="b" d="M140,81.4q3.78-5,11.19-5,14.8,0,14.81,19.82T151.09,116q-7.42,0-11.15-5t-3.73-14.8q0-9.83,3.77-14.82m31.88-7.56q-7.16-7.79-20.68-7.79T130.4,73.78q-7.24,7.72-7.24,22.36t7.22,22.46q7.22,7.82,20.7,7.82H152l10.17,12.45a1.93,1.93,0,0,0,1.49.71h10.69a1.93,1.93,0,0,0,1.44-3.22l-9.58-10.7a1.9,1.9,0,0,1,.41-2.91,22.3,22.3,0,0,0,8.71-9.19q3.67-7,3.67-17.34,0-14.61-7.16-22.38M85.1,101.23a1.94,1.94,0,0,1-1.84-2.52q5.57-18.06,6.8-22.88c.22,1,.58,2.27,1.07,3.93s2.42,7.86,5.86,19a1.93,1.93,0,0,1-1.84,2.51Zm32.38,21.82L98.07,68a1.93,1.93,0,0,0-1.82-1.29H83.77A1.93,1.93,0,0,0,82,68l-19.34,55a1.93,1.93,0,0,0,1.82,2.57h9.24a1.93,1.93,0,0,0,1.85-1.37L78.94,113a1.93,1.93,0,0,1,1.85-1.37H99.3a1.93,1.93,0,0,1,1.85,1.37l3.42,11.22a1.93,1.93,0,0,0,1.85,1.37h9.24A1.93,1.93,0,0,0,117.48,123.05ZM38.16,102.44h16a1.93,1.93,0,0,0,1.93-1.93V94.22a1.93,1.93,0,0,0-1.93-1.93h-16a1.93,1.93,0,0,1-1.93-1.93V79.09a1.93,1.93,0,0,1,1.93-1.93H55.68a1.93,1.93,0,0,0,1.93-1.93V68.91A1.93,1.93,0,0,0,55.68,67H25.93A1.93,1.93,0,0,0,24,68.91V123.7a1.93,1.93,0,0,0,1.93,1.93H34.3a1.93,1.93,0,0,0,1.93-1.93V104.37A1.93,1.93,0,0,1,38.16,102.44Z"/></svg>