<svg xmlns="http://www.w3.org/2000/svg" viewBox="0 0 200 200"><defs><style>.a{fill:#243041;}.b{fill:#687d92;}.c{fill:#d2d9dd;}</style></defs><title>Group</title><circle class="a" cx="100" cy="100" r="100"/><path class="b" d="M169,93.78c-3.84,5.17-11.86,9-20.2,9A28.62,28.62,0,0,1,138,100.61a21.93,21.93,0,0,1,5,13.61v13.22a7.32,7.32,0,0,1-.23,1.78c1.9.07,3.9.11,6,.11,15.26,0,24.75-1.95,28.58-3.14s5.64-2.54,5.64-5.64V110C183,98.5,170.93,91.16,169,93.78Z"/><circle class="b" cx="148.78" cy="75.43" r="19.4"/><path class="b" d="M57.66,114.23a21.92,21.92,0,0,1,4.92-13.57,28.62,28.62,0,0,1-10.64,2.09c-8.34,0-16.36-3.8-20.2-9-1.94-2.62-14,4.72-14,16.19v10.6c0,3.1,1.81,4.45,5.64,5.64s13.32,3.14,28.58,3.14c2.09,0,4.06,0,5.94-.11a7.32,7.32,0,0,1-.23-1.79Z"/><circle class="b" cx="51.95" cy="75.43" r="19.4"/><path class="c" d="M138,100.61c-3.13-3.94-7.05-6.47-9.74-7.07-1.28-.29-2.29-.15-2.77.5a25.51,25.51,0,0,1-8.27,6.87,35.27,35.27,0,0,1-33.73.06A25.59,25.59,0,0,1,75.14,94c-.47-.63-1.43-.79-2.65-.54-2.7.55-6.72,3.12-9.91,7.15a21.92,21.92,0,0,0-4.92,13.57v13.22a7.32,7.32,0,0,0,.23,1.79c.65,2.63,2.85,4,6.8,5.24,4.77,1.48,16.6,3.91,35.63,3.91S131.19,136,136,134.48c4-1.23,6.16-2.61,6.81-5.25a7.32,7.32,0,0,0,.23-1.78V114.23A21.93,21.93,0,0,0,138,100.61Z"/><circle class="c" cx="100.33" cy="71.17" r="24.18"/></svg>