<svg xmlns="http://www.w3.org/2000/svg" viewBox="0 0 200 200"><defs><style>.a{fill:#243041;}.b{fill:#d2d9dd;}</style></defs><title>Question_1</title><circle class="a" cx="100" cy="100" r="100"/><path class="b" d="M99.24,135.18A21.69,21.69,0,0,0,82.71,142a25.82,25.82,0,0,0,0,34.09A21.69,21.69,0,0,0,99.24,183a21.69,21.69,0,0,0,16.53-6.87,25.8,25.8,0,0,0,0-34.08C111.51,137.49,106,135.18,99.24,135.18Z"/><path class="b" d="M134.86,28.76a45.85,45.85,0,0,0-15.57-7.25,76.06,76.06,0,0,0-19.1-2.35,51.22,51.22,0,0,0-24.63,6.09c-3.68,2-9.75,6.95-17.07,13.9a2.18,2.18,0,0,0-.69,1.62,2.23,2.23,0,0,0,.74,1.64L76.38,58.73a2.24,2.24,0,0,0,1.51.59,2.19,2.19,0,0,0,1.41-.51c3.36-2.79,5.71-4.64,7-5.5a19.16,19.16,0,0,1,11-3,17.07,17.07,0,0,1,10,2.9c2.87,2,4.32,5.36,4.32,9.94a14.1,14.1,0,0,1-2.68,8A77.37,77.37,0,0,1,102.77,79c-2.15,2.46-4.62,5.2-7.76,8.6a60.22,60.22,0,0,0-7.29,9.76A44,44,0,0,0,82.93,109c-.45,1.75-.6,5.68-.41,10.77a2.24,2.24,0,0,0,2.24,2.17h29.78a2.24,2.24,0,0,0,2.23-2.17c.24-6.44,1-8.34,1.31-9a46.11,46.11,0,0,1,6-10,93.41,93.41,0,0,1,8.09-8.92,88.76,88.76,0,0,0,8-9,54,54,0,0,0,6.22-10.21,29.07,29.07,0,0,0,2.54-12.39c0-7.3-1.26-13.63-3.74-18.82A33.33,33.33,0,0,0,134.86,28.76Z"/></svg>