<svg xmlns="http://www.w3.org/2000/svg" viewBox="0 0 200 200"><defs><style>.a{fill:#243041;}.b{fill:#d2d9dd;}</style></defs><title>Idea</title><circle class="a" cx="100" cy="100" r="100"/><path class="b" d="M148.62,64.15a48.14,48.14,0,1,0-96.29,0A47.19,47.19,0,0,0,69.6,101a20.49,20.49,0,0,1,7.64,15.93v9.86a2.87,2.87,0,0,0,3.2,2.49l40.76-5.12a2.87,2.87,0,0,0,2.48-3.2l0-4A20.49,20.49,0,0,1,131.36,101a47.19,47.19,0,0,0,17.26-36.85"/><rect class="b" x="77.24" y="135.69" width="46.48" height="8.64" rx="1.15" ry="1.15" transform="translate(-16.66 13.61) rotate(-7.16)"/><rect class="b" x="77.24" y="153.07" width="46.48" height="8.64" rx="1.15" ry="1.15" transform="translate(-18.83 13.75) rotate(-7.16)"/><path class="b" d="M86.77,172.08A2.89,2.89,0,0,0,83.88,175v.14s0,0,0,.07a9.77,9.77,0,0,0,10,9.82h13.28a9.77,9.77,0,0,0,10-9.82s0,0,0-.07v-4a2.9,2.9,0,0,0-3.23-2.51Z"/></svg>