<svg xmlns="http://www.w3.org/2000/svg" viewBox="0 0 200 200"><defs><style>.a{fill:#243041;}.b{fill:#d2d9dd;}</style></defs><title>Private</title><circle class="a" cx="100" cy="100" r="100"/><path class="b" d="M150.67,73.51h-2.84V50.69A21.72,21.72,0,0,0,126.14,29H74.6A21.72,21.72,0,0,0,52.9,50.69V73.51H50.07a14,14,0,0,0-14,14V150a14,14,0,0,0,14,14h100.6a14,14,0,0,0,14-14V87.49A14,14,0,0,0,150.67,73.51Zm-42.59,47.81v21.16a7.71,7.71,0,1,1-15.43,0V121.32a18.64,18.64,0,1,1,15.43,0ZM132.4,73.51H68.33V50.69a6.27,6.27,0,0,1,6.27-6.27h51.54a6.27,6.27,0,0,1,6.26,6.27Z"/></svg>