<svg xmlns="http://www.w3.org/2000/svg" viewBox="0 0 200 200"><defs><style>.a{fill:#243041;}.b{fill:#d2d9dd;}.c{fill:#687d92;}</style></defs><title>Log in</title><circle class="a" cx="100" cy="100" r="100"/><path class="b" d="M146,31H54.23a4.83,4.83,0,0,0-4.83,4.83V166.17A4.84,4.84,0,0,0,54.23,171H146a4.83,4.83,0,0,0,4.83-4.83V35.83A4.84,4.84,0,0,0,146,31Z"/><path class="c" d="M125,101.09c0-.18,0-.35-.05-.53a11.26,11.26,0,0,0-3.27-7.49L91.92,63.28A8.09,8.09,0,1,0,80.49,74.72L98.77,93H23.44a8.09,8.09,0,0,0,0,16.17H98.77L80.49,127.46a8.09,8.09,0,1,0,11.44,11.44l29.79-29.79a11.26,11.26,0,0,0,3.27-7.52C125,101.42,125,101.26,125,101.09Z"/></svg>