<svg xmlns="http://www.w3.org/2000/svg" viewBox="0 0 200 200"><defs><style>.a{fill:#243041;}.b{fill:#d2d9dd;}</style></defs><title>Note</title><circle class="a" cx="100" cy="100" r="100"/><path class="b" d="M122.35,42.34h-28A55.82,55.82,0,0,0,38.66,98h0a55.2,55.2,0,0,0,8.86,30L34.67,149.63a5.66,5.66,0,0,0,8,8l20.69-13.49a55.24,55.24,0,0,0,31,9.48h28A55.82,55.82,0,0,0,178,98h0A55.82,55.82,0,0,0,122.35,42.34Zm-3.9,9.11-.68,18.13-2.86,41.71H101.81L99,69.57l-.68-18.13Zm-10.09,93c-6.95,0-12.13-5.45-12.13-12.54s5.18-12.67,12.13-12.67,12.13,5.45,12.13,12.67S115.31,144.4,108.36,144.4Z"/></svg>