<svg xmlns="http://www.w3.org/2000/svg" viewBox="0 0 100 100"><defs><style>.a{fill:#ededc0;}.b{fill:none;}.c{fill:#203143;}</style></defs><title>Zeichenfläche 1 Kopie 4</title><path class="a" d="M61.62,9.67H42.29A38.5,38.5,0,0,0,3.9,48h0A38.07,38.07,0,0,0,10,68.74L1.15,83.66A3.9,3.9,0,0,0,6.66,89.2l14.27-9.31a38.1,38.1,0,0,0,21.36,6.54H61.62A38.5,38.5,0,0,0,100,48h0A38.5,38.5,0,0,0,61.62,9.67Z"/><path class="b" d="M63.55,24.73H41.89a2.64,2.64,0,0,0-2.63,2.63V37H66.19V27.37A2.64,2.64,0,0,0,63.55,24.73Z"/><path class="c" d="M73.86,37H72.67V27.37a9.13,9.13,0,0,0-9.12-9.12H41.89a9.13,9.13,0,0,0-9.12,9.12V37H31.58a5.88,5.88,0,0,0-5.88,5.88V69.12A5.88,5.88,0,0,0,31.58,75H73.86a5.88,5.88,0,0,0,5.88-5.88V42.83A5.88,5.88,0,0,0,73.86,37ZM54.37,57.05v8.9a3.24,3.24,0,1,1-6.48,0v-8.9a7.84,7.84,0,1,1,6.48,0ZM66.19,37H39.25V27.37a2.64,2.64,0,0,1,2.63-2.63H63.55a2.64,2.64,0,0,1,2.63,2.63Z"/></svg>