<svg xmlns="http://www.w3.org/2000/svg" viewBox="0 0 200 200"><defs><style>.a{fill:#243041;}.b{fill:#d2d9dd;}.c{fill:none;}</style></defs><title>Private Note</title><circle class="a" cx="100" cy="100" r="100"/><path class="b" d="M122.35,42.34h-28A55.82,55.82,0,0,0,38.66,98h0a55.2,55.2,0,0,0,8.86,30L34.67,149.63a5.66,5.66,0,0,0,8,8l20.69-13.49a55.24,55.24,0,0,0,31,9.48h28A55.82,55.82,0,0,0,178,98h0A55.82,55.82,0,0,0,122.35,42.34Z"/><path class="c" d="M125.15,64.18H93.74A3.82,3.82,0,0,0,89.92,68v13.9H129V68A3.82,3.82,0,0,0,125.15,64.18Z"/><path class="a" d="M140.1,81.91h-1.73V68a13.24,13.24,0,0,0-13.22-13.22H93.74A13.24,13.24,0,0,0,80.52,68v13.9H78.79a8.52,8.52,0,0,0-8.52,8.52v38.12a8.52,8.52,0,0,0,8.52,8.52H140.1a8.52,8.52,0,0,0,8.52-8.52V90.43A8.52,8.52,0,0,0,140.1,81.91ZM111.83,111v12.9a4.7,4.7,0,1,1-9.4,0V111a11.36,11.36,0,1,1,9.4,0ZM129,81.91H89.92V68a3.82,3.82,0,0,1,3.82-3.82h31.41A3.82,3.82,0,0,1,129,68Z"/></svg>