<svg xmlns="http://www.w3.org/2000/svg" viewBox="0 0 200 200"><defs><style>.a{fill:#243041;}.b{fill:#d2d9dd;}</style></defs><title>Process_1</title><circle class="a" cx="100" cy="100" r="100"/><path class="b" d="M180.75,91.05l-41.2-41.2a10,10,0,0,0-5.14-2.72c-.18,0-.36,0-.54-.06s-.63-.09-1-.11v0H40.1a10.08,10.08,0,0,0-5.15,1.43l-.29.16a10.26,10.26,0,0,0-.82.63c-.24.19-.5.35-.73.56l.09,0,0,0-.07,0c-.05.05-.11.08-.17.13a10.12,10.12,0,0,0-1.38,12.51,10.69,10.69,0,0,0,1.38,1.75l7.26,7.25L61.9,93.07a14.54,14.54,0,0,1,0,16.58L40.19,131.37l-7.26,7.25a10.42,10.42,0,0,0-1.38,1.75,10.12,10.12,0,0,0,1.38,12.51c.05,0,.11.08.17.13l.07,0,0,0-.09,0c.23.22.49.38.73.57a10.26,10.26,0,0,0,.82.63l.29.16a10,10,0,0,0,5.15,1.42h92.82v0c.32,0,.63-.07,1-.11s.36,0,.54-.06a10,10,0,0,0,5.14-2.72l41.2-41.2a14.63,14.63,0,0,0,0-20.63"/></svg>