<svg xmlns="http://www.w3.org/2000/svg" viewBox="0 0 200 200"><defs><style>.a{fill:#243041;}.b{fill:#d2d9dd;}.c{fill:#687d92;}.d{fill:#8d9dad;}</style></defs><title>Process</title><circle class="a" cx="100" cy="100" r="100"/><path class="b" d="M181.17,91.72,144.1,54.65a8.94,8.94,0,0,0-4.62-2.45c-.16,0-.33,0-.49-.06a9.37,9.37,0,0,0-1.06-.12l-.05,0a9,9,0,0,0-6.38,2.47l-.06,0-.15.12a9.14,9.14,0,0,0,0,12.83l26.06,26.06a13.07,13.07,0,0,1,0,14.92l-26.06,26.06a9.11,9.11,0,0,0,0,12.83l.15.12.06,0a9,9,0,0,0,6.38,2.47l.05,0a9.33,9.33,0,0,0,1.06-.12c.16,0,.33,0,.49-.06a8.93,8.93,0,0,0,4.62-2.45l37.07-37.07a13.16,13.16,0,0,0,0-18.56Z"/><path class="c" d="M41.45,147.35l37.07-37.07a13.16,13.16,0,0,0,0-18.56L41.45,54.65a8.94,8.94,0,0,0-4.62-2.45c-.16,0-.32,0-.49-.06A9.38,9.38,0,0,0,35.29,52h-.2a9,9,0,0,0-4.64,1.29l-.27.14c-.26.16-.49.37-.73.56s-.45.32-.66.51l.08,0,0,0-.06,0-.15.12a9.14,9.14,0,0,0,0,12.83L54.71,93.54a13.07,13.07,0,0,1,0,14.92L28.64,134.52a9.11,9.11,0,0,0,0,12.83l.15.12.06,0,0,0-.08,0c.21.19.44.34.66.51s.48.4.73.56l.27.14A9,9,0,0,0,35.09,150h.2a9.34,9.34,0,0,0,1.06-.12c.16,0,.32,0,.48-.06A8.94,8.94,0,0,0,41.45,147.35Z"/><path class="d" d="M92.78,147.35l37.07-37.07a13.16,13.16,0,0,0,0-18.56L92.78,54.65a8.94,8.94,0,0,0-4.62-2.45c-.16,0-.33,0-.49-.06A9.37,9.37,0,0,0,86.61,52l-.05,0a9,9,0,0,0-6.38,2.47l-.06,0-.15.12a9.14,9.14,0,0,0,0,12.83L106,93.54a13.07,13.07,0,0,1,0,14.92L80,134.52a9.11,9.11,0,0,0,0,12.83l.15.12.06,0A9,9,0,0,0,86.56,150l.05,0a9.33,9.33,0,0,0,1.06-.12c.16,0,.33,0,.49-.06A8.93,8.93,0,0,0,92.78,147.35Z"/></svg>