<svg xmlns="http://www.w3.org/2000/svg" viewBox="0 0 200 200"><defs><style>.a{fill:#243041;}.b{fill:#d2d9dd;}</style></defs><title>Reader view</title><circle class="a" cx="100" cy="100" r="100"/><path class="b" d="M133.69,178H66.85v-7.38q3.88-1.55,8.84-3.21a61.17,61.17,0,0,1,10-2.43V54.63H63.16L50.73,87.85h-8Q42,84,41.21,77.94T39.85,65.51q-.58-6.41-1-12.73T38.49,42H162.25q0,4.66-.39,10.88t-1,12.63q-.58,6.41-1.36,12.34t-1.55,10h-8.16L137.38,54.63H114.84V165q5.05,1,10,2.33a48.84,48.84,0,0,1,8.84,3.3Z"/></svg>