<svg xmlns="http://www.w3.org/2000/svg" viewBox="0 0 200 200"><defs><style>.a{fill:#243041;}.b{fill:#d2d9dd;}</style></defs><title>Search</title><circle class="a" cx="100" cy="100" r="100"/><path class="b" d="M110.18,17a46,46,0,0,0-36,74.46L69,100a5.74,5.74,0,0,0-1,3.41,7.14,7.14,0,0,0,3.4,6.11L45.23,154.7a8.88,8.88,0,0,0-1.36,5.1A10,10,0,0,0,54.08,170a10.45,10.45,0,0,0,8.84-5.44L89.1,119.68a5.51,5.51,0,0,0,3.4.69A6.59,6.59,0,0,0,98.28,117l5.1-8.5a42.84,42.84,0,0,0,6.8.34,45.9,45.9,0,1,0,0-91.8Zm28.77,45.9a28.77,28.77,0,1,1-28.77-28.77A28.8,28.8,0,0,1,138.95,62.9Z"/></svg>