<svg xmlns="http://www.w3.org/2000/svg" viewBox="0 0 200 200"><defs><style>.a{fill:#243041;}.b{fill:#d2d9dd;}.c{fill:#687d92;}</style></defs><title>Share</title><circle class="a" cx="100" cy="100" r="100"/><path class="b" d="M143.89,70.26H56.35a5.56,5.56,0,0,0-5.56,5.56v89.62A5.57,5.57,0,0,0,56.35,171h87.54a5.56,5.56,0,0,0,5.56-5.56V75.82A5.57,5.57,0,0,0,143.89,70.26Z"/><path class="c" d="M100.12,16.47c-.18,0-.34,0-.52.05a11,11,0,0,0-7.35,3.2L63,48.94A7.93,7.93,0,1,0,74.25,60.16L92.19,42.22v73.9a7.93,7.93,0,0,0,15.87,0V42.22L126,60.16a7.93,7.93,0,1,0,11.22-11.22L108,19.72a11,11,0,0,0-7.38-3.21C100.45,16.5,100.29,16.47,100.12,16.47Z"/></svg>