<svg xmlns="http://www.w3.org/2000/svg" viewBox="0 0 200 200"><defs><style>.a{fill:#243041;}.b{fill:#d2d9dd;}</style></defs><title>Sort</title><circle class="a" cx="100" cy="100" r="100"/><path class="b" d="M75.07,20.05a11.41,11.41,0,0,1,7.62,3.31l30.17,30.17a8.19,8.19,0,1,1-11.58,11.58L82.76,46.6v76.3a8.19,8.19,0,1,1-16.38,0V46.6L47.85,65.12A8.19,8.19,0,1,1,36.27,53.53L66.44,23.36A11.41,11.41,0,0,1,74,20.05c.18,0,.35-.05.53-.05S74.9,20,75.07,20.05Zm51.09,159.78c.18,0,.35,0,.53-.05a11.41,11.41,0,0,0,7.59-3.31l30.17-30.17a8.19,8.19,0,1,0-11.58-11.58l-18.52,18.52V76.93a8.19,8.19,0,1,0-16.38,0v76.3L99.46,134.71A8.19,8.19,0,1,0,87.87,146.3L118,176.47a11.41,11.41,0,0,0,7.62,3.31C125.83,179.79,126,179.83,126.17,179.83Z"/></svg>