<svg xmlns="http://www.w3.org/2000/svg" viewBox="0 0 100 100"><defs><style>.a{fill:#d2d9df;}</style></defs><title>Zeichenfläche 1 Kopie</title><path class="a" d="M55.8,100H22.46a2.91,2.91,0,0,1-2.9-2.9V92.75a2.91,2.91,0,0,1,2.9-2.9V44.93a2.91,2.91,0,0,1-2.9-2.9V37.68a2.91,2.91,0,0,1,2.9-2.9V33.33a5.81,5.81,0,0,1,5.8-5.8h2.9v-2.9a2.91,2.91,0,0,1,2.9-2.9v-5.8A2.91,2.91,0,0,1,37,13H41.3a2.91,2.91,0,0,1,2.9,2.9v5.8a2.91,2.91,0,0,1,2.9,2.9v2.9H50a5.81,5.81,0,0,1,5.8,5.8v1.45a2.91,2.91,0,0,1,2.9,2.9V42a2.91,2.91,0,0,1-2.9,2.9V89.85a2.91,2.91,0,0,1,2.9,2.9V97.1A2.91,2.91,0,0,1,55.8,100Zm0-62.32H22.46V42H55.8Zm0,55.07H22.46V97.1H55.8ZM52.9,33.33a2.91,2.91,0,0,0-2.9-2.9H28.26a2.91,2.91,0,0,0-2.9,2.9v1.45H52.9Zm-8.7-8.7H34.06v2.9H44.2Zm9-5.8a2.17,2.17,0,1,1,2.18-2.18A2.23,2.23,0,0,1,53.19,18.84Zm6.23-3.63A2.17,2.17,0,1,1,61.6,13,2.23,2.23,0,0,1,59.42,15.22Zm0,7.25a2.17,2.17,0,1,1,2.18-2.18A2.23,2.23,0,0,1,59.42,22.46Zm6.23-10.87a2.23,2.23,0,0,1-2.18-2.17,2.17,2.17,0,0,1,4.35,0A2.23,2.23,0,0,1,65.65,11.59Zm0,7.25a2.17,2.17,0,1,1,2.17-2.18A2.23,2.23,0,0,1,65.65,18.84Zm0,7.25a2.17,2.17,0,1,1,2.17-2.18A2.23,2.23,0,0,1,65.65,26.09ZM72,8A2.23,2.23,0,0,1,69.86,5.8a2.17,2.17,0,1,1,4.35,0A2.23,2.23,0,0,1,72,8Zm0,7.25A2.17,2.17,0,1,1,74.2,13,2.23,2.23,0,0,1,72,15.22Zm0,7.25a2.17,2.17,0,1,1,2.17-2.18A2.23,2.23,0,0,1,72,22.46Zm0,7.25a2.17,2.17,0,1,1,2.17-2.18A2.23,2.23,0,0,1,72,29.71ZM78.26,4.35a2.23,2.23,0,0,1-2.17-2.17,2.17,2.17,0,1,1,4.35,0A2.23,2.23,0,0,1,78.26,4.35Zm0,7.25a2.23,2.23,0,0,1-2.17-2.17,2.17,2.17,0,1,1,4.35,0A2.23,2.23,0,0,1,78.26,11.59Zm0,7.25a2.17,2.17,0,1,1,2.17-2.18A2.23,2.23,0,0,1,78.26,18.84Zm0,7.25a2.17,2.17,0,1,1,2.17-2.18A2.23,2.23,0,0,1,78.26,26.09Zm0,7.25a2.17,2.17,0,1,1,2.17-2.18A2.23,2.23,0,0,1,78.26,33.33Z"/></svg>