<svg xmlns="http://www.w3.org/2000/svg" viewBox="0 0 100 100"><defs><style>.a{fill:#203143;}</style></defs><title>Zeichenfläche 1 Kopie 2</title><path class="a" d="M54.06,13.49a4.12,4.12,0,0,1-3.48,1.23,16.88,16.88,0,0,0-13.63,4.82,3.57,3.57,0,0,0-.51,4.41l3,5.43L54.78,44.75a2.91,2.91,0,0,1,4.1,0l1,1a4,4,0,0,1,1.23,3.07,5,5,0,0,0,1.53,3.79L86.85,76.83a4.7,4.7,0,0,0,3.69,1.43,4.28,4.28,0,0,1,3.18,1.34l1,1a2.91,2.91,0,0,1,0,4.1l-9.22,9.22a2.91,2.91,0,0,1-4.1,0l-1-1a4.41,4.41,0,0,1-1.23-3.28A4.59,4.59,0,0,0,77.63,86L53.44,61.86a4.91,4.91,0,0,0-3.69-1.64,4.09,4.09,0,0,1-3.17-1.13l-1-1a2.91,2.91,0,0,1,0-4.1L30.18,38.6l-5.84-3.38A2.86,2.86,0,0,0,20,38.09a4.32,4.32,0,0,1-1.23,3.69L13.68,46.9,2.41,35.63,7.53,30.5a4.31,4.31,0,0,1,3.69-1.23A2.9,2.9,0,0,0,14.5,26a4.31,4.31,0,0,1,1.23-3.69l8.81-8.81A28.06,28.06,0,0,1,52.22,6.32a4.73,4.73,0,0,1,1.84,1A4.27,4.27,0,0,1,54.06,13.49ZM51.5,9.08a25.55,25.55,0,0,0-24.9,6.46l-8.81,8.81a1.78,1.78,0,0,0-.41,1.23,5.8,5.8,0,0,1-6.56,6.56,1.77,1.77,0,0,0-1.23.41L6.51,35.63l7.17,7.17,3.07-3.07a1.79,1.79,0,0,0,.41-1.23,5.63,5.63,0,0,1,1.64-4.92,5.91,5.91,0,0,1,7.07-.92L31.72,36l.51.51,5.12-5.12c-.2-.2-.21-.41-.41-.61l-3.18-5.43a6.57,6.57,0,0,1,1.13-7.89,19.39,19.39,0,0,1,16-5.54A1.64,1.64,0,0,0,52,11.45a1.37,1.37,0,0,0,0-2.05C51.81,9.19,51.7,9.09,51.5,9.08ZM39.41,33.48,34.28,38.6,47.6,51.92l5.12-5.12Z"/></svg>