<svg xmlns="http://www.w3.org/2000/svg" viewBox="0 0 100 100"><defs><style>.a{fill:#e0ff12;}</style></defs><title>Zeichenfläche 1 Kopie 3</title><path class="a" d="M96.3,92.66H3.7A3.72,3.72,0,0,1,0,89V29.7A3.71,3.71,0,0,1,3.7,26H9.26A3.72,3.72,0,0,1,13,22.3h3.7a3.71,3.71,0,0,1,3.7,3.7h5.55V22.3a3.72,3.72,0,0,1,3.7-3.7V13a9.17,9.17,0,0,1,9.26-9.26H61.11A9.17,9.17,0,0,1,70.37,13v5.55a3.72,3.72,0,0,1,3.7,3.7V26h5.55a3.72,3.72,0,0,1,3.7-3.7H87a3.72,3.72,0,0,1,3.7,3.7H96.3a3.71,3.71,0,0,1,3.7,3.7V89A3.72,3.72,0,0,1,96.3,92.66ZM16.67,26H13v5.55a1.75,1.75,0,0,0,1.85,1.85,1.75,1.75,0,0,0,1.85-1.85Zm22.22-3.7H29.63V26h9.26ZM61.11,13H38.89v5.55a3.72,3.72,0,0,1,3.7,3.7V26H57.41V22.3a3.72,3.72,0,0,1,3.7-3.7Zm9.26,9.26H61.11V26h9.26ZM87,26h-3.7v5.55a1.85,1.85,0,0,0,3.7,0Z"/></svg>