<svg xmlns="http://www.w3.org/2000/svg" viewBox="0 0 100 100"><defs><style>.a{fill:#d2d9df;}</style></defs><title>Zeichenfläche 1 Kopie</title><path class="a" d="M89.41,21.76,55.88,55.29v25.1a4.18,4.18,0,0,0,3.33,3.92L71,86.47a7.63,7.63,0,0,1,6.47,7.65v2A3.94,3.94,0,0,1,73.53,100H26.47a3.93,3.93,0,0,1-3.92-3.92v-2A7.63,7.63,0,0,1,29,86.47l11.77-2.16a4.18,4.18,0,0,0,3.33-3.92V55.29L10.59,21.76a6.11,6.11,0,0,1-1.77-4.12,5.78,5.78,0,0,1,5.88-5.88H71.76L82.94.59A1.79,1.79,0,0,1,84.31,0a1.85,1.85,0,0,1,2,2,1.77,1.77,0,0,1-.59,1.37l-8.43,8.43h8a5.78,5.78,0,0,1,5.88,5.88A6.13,6.13,0,0,1,89.41,21.76ZM85.3,15.68h-12l-15.1,15.1a10.55,10.55,0,0,1,1.57,5.49,9.8,9.8,0,1,1-9.8-9.8A10.52,10.52,0,0,1,55.49,28L67.84,15.68H14.71a1.85,1.85,0,0,0-2,2A1.78,1.78,0,0,0,13.33,19L46.86,52.55A3.56,3.56,0,0,1,48,55.29v25.1a7.84,7.84,0,0,1-6.47,7.84l-11.77,2a4.19,4.19,0,0,0-3.33,3.92v2H73.53v-2A4.18,4.18,0,0,0,70.2,90.2l-11.77-2A7.84,7.84,0,0,1,52,80.39V55.29a3.56,3.56,0,0,1,1.18-2.75L86.67,19a1.79,1.79,0,0,0,.59-1.37A1.85,1.85,0,0,0,85.3,15.68ZM48,35.29A2.94,2.94,0,1,0,51,38.23,3,3,0,0,0,48,35.29Z"/></svg>