<svg xmlns="http://www.w3.org/2000/svg" viewBox="0 0 100 100"><defs><style>.a{fill:#203143;}</style></defs><title>Zeichenfläche 1 Kopie 2</title><path class="a" d="M81.78,81a17.9,17.9,0,0,1-15.12,8.21c-2.38,0-4.76,0-7.14-.12L58,97.94a2.58,2.58,0,0,1-2.74,2L52,99.37A2.54,2.54,0,0,1,50,97V88.66a217.4,217.4,0,0,1-26.66-3.45l-.71,4.4a2.53,2.53,0,0,1-2.38,2,2.39,2.39,0,0,1-2.38-2.38V79.74a2.39,2.39,0,0,1,2.38-2.38H56V69H27.87a3.51,3.51,0,0,1-3.57-3.57A80.18,80.18,0,0,1,52.5,4.4a3.77,3.77,0,0,1,2.26-.83H56V1.78a1.78,1.78,0,0,1,3.57,0V20.11h1.19a3.5,3.5,0,0,1,3,1.67A123.83,123.83,0,0,1,82.13,69.62v.6a3.51,3.51,0,0,1-3.57,3.57h-19v3.57H79.75a2.39,2.39,0,0,1,2.38,2.38A2.42,2.42,0,0,1,81.78,81ZM56,6H54.76a1.13,1.13,0,0,0-.83.24A77.94,77.94,0,0,0,26.67,65.45a1.12,1.12,0,0,0,1.19,1.19H56Zm23.8,64A120.94,120.94,0,0,0,61.66,23.09a1.07,1.07,0,0,0-1-.59H59.52V71.4h19a1.13,1.13,0,0,0,1.19-1.19Z"/></svg>