<svg xmlns="http://www.w3.org/2000/svg" viewBox="0 0 100 100"><defs><style>.a{fill:#e0ff12;}</style></defs><title>Zeichenfläche 1 Kopie 3</title><path class="a" d="M54.8,100H21.46a2.91,2.91,0,0,1-2.9-2.9V92.75a2.91,2.91,0,0,1,2.9-2.9V44.93a2.91,2.91,0,0,1-2.9-2.9V37.68a2.91,2.91,0,0,1,2.9-2.9V33.33a5.81,5.81,0,0,1,5.8-5.8h2.9v-2.9a2.91,2.91,0,0,1,2.9-2.9v-5.8A2.91,2.91,0,0,1,36,13H40.3a2.91,2.91,0,0,1,2.9,2.9v5.8a2.91,2.91,0,0,1,2.9,2.9v2.9H49a5.81,5.81,0,0,1,5.8,5.8v1.45a2.91,2.91,0,0,1,2.9,2.9V42a2.91,2.91,0,0,1-2.9,2.9V89.85a2.91,2.91,0,0,1,2.9,2.9V97.1A2.91,2.91,0,0,1,54.8,100Zm0-62.32H21.46V42H54.8Zm0,55.07H21.46V97.1H54.8ZM51.9,33.33a2.91,2.91,0,0,0-2.9-2.9H27.26a2.91,2.91,0,0,0-2.9,2.9v1.45H51.9Zm-8.7-8.7H33.06v2.9H43.2Zm9-5.8a2.17,2.17,0,1,1,2.18-2.18A2.23,2.23,0,0,1,52.19,18.84Zm6.23-3.63A2.17,2.17,0,1,1,60.6,13,2.23,2.23,0,0,1,58.42,15.22Zm0,7.25a2.17,2.17,0,1,1,2.18-2.18A2.23,2.23,0,0,1,58.42,22.46Zm6.23-10.87a2.23,2.23,0,0,1-2.18-2.17,2.17,2.17,0,0,1,4.35,0A2.23,2.23,0,0,1,64.65,11.59Zm0,7.25a2.17,2.17,0,1,1,2.17-2.18A2.23,2.23,0,0,1,64.65,18.84Zm0,7.25a2.17,2.17,0,1,1,2.17-2.18A2.23,2.23,0,0,1,64.65,26.09ZM71,8A2.23,2.23,0,0,1,68.86,5.8a2.17,2.17,0,1,1,4.35,0A2.23,2.23,0,0,1,71,8Zm0,7.25A2.17,2.17,0,1,1,73.2,13,2.23,2.23,0,0,1,71,15.22Zm0,7.25a2.17,2.17,0,1,1,2.17-2.18A2.23,2.23,0,0,1,71,22.46Zm0,7.25a2.17,2.17,0,1,1,2.17-2.18A2.23,2.23,0,0,1,71,29.71ZM77.26,4.35a2.23,2.23,0,0,1-2.17-2.17,2.17,2.17,0,1,1,4.35,0A2.23,2.23,0,0,1,77.26,4.35Zm0,7.25a2.23,2.23,0,0,1-2.17-2.17,2.17,2.17,0,1,1,4.35,0A2.23,2.23,0,0,1,77.26,11.59Zm0,7.25a2.17,2.17,0,1,1,2.17-2.18A2.23,2.23,0,0,1,77.26,18.84Zm0,7.25a2.17,2.17,0,1,1,2.17-2.18A2.23,2.23,0,0,1,77.26,26.09Zm0,7.25a2.17,2.17,0,1,1,2.17-2.18A2.23,2.23,0,0,1,77.26,33.33Z"/></svg>