<svg xmlns="http://www.w3.org/2000/svg" viewBox="0 0 100 100"><defs><style>.a{fill:#e0ff12;}</style></defs><title>Zeichenfläche 1 Kopie 3</title><path class="a" d="M83.74,99.87H14.26a4.26,4.26,0,0,1-4.34-4.34V55a4.26,4.26,0,0,1,4.34-4.34h2.9V49.21a1.37,1.37,0,0,1,1.45-1.45h8.69a1.37,1.37,0,0,1,1.45,1.45v1.45h4.78l3.18-5.5a3.79,3.79,0,0,1,3.18-1.74h1.59V35.9c0-2.32-3.18-4.34-5.35-4.92a5.75,5.75,0,0,1-4.49-5.65v-21A4.26,4.26,0,0,1,36,0H62a4.27,4.27,0,0,1,4.35,4.34v21A5.75,5.75,0,0,1,61.88,31c-2.17.58-5.21,2.61-5.21,4.92v7.53h1.45a3.77,3.77,0,0,1,3.18,1.74l3.18,5.5h4.78V49.21a1.37,1.37,0,0,1,1.45-1.45h8.68a1.37,1.37,0,0,1,1.45,1.45v1.45h2.9A4.27,4.27,0,0,1,88.08,55V95.53A4.27,4.27,0,0,1,83.74,99.87ZM14.26,53.56A1.37,1.37,0,0,0,12.81,55v5.79H27.72l4.19-7.24ZM21.5,75.27a1.37,1.37,0,0,0-1.45-1.45H18.6a1.37,1.37,0,0,0-1.45,1.45V85.4a1.37,1.37,0,0,0,1.45,1.45h1.45A1.37,1.37,0,0,0,21.5,85.4Zm46.9-12L58.84,46.61a1.1,1.1,0,0,0-.72-.29H39.88a1.11,1.11,0,0,0-.72.29L29.6,63.25a23.12,23.12,0,0,0-3,11.29,22.44,22.44,0,0,0,44.87,0A23.11,23.11,0,0,0,68.4,63.25ZM49,92.64A18.09,18.09,0,1,1,67.09,74.54,18.1,18.1,0,0,1,49,92.64Zm0-33.29a15.2,15.2,0,1,0,15.2,15.2A15.2,15.2,0,0,0,49,59.35ZM62,5.79a1.37,1.37,0,0,0-1.45-1.45H37.42A1.37,1.37,0,0,0,36,5.79V17.37a1.37,1.37,0,0,0,1.45,1.45H60.58A1.36,1.36,0,0,0,62,17.37ZM49,86.85a12.3,12.3,0,1,1,12.3-12.3A12.3,12.3,0,0,1,49,86.85ZM45.38,68a2.89,2.89,0,1,0,2.9,2.9A2.91,2.91,0,0,0,45.38,68Zm7.67-30.4h-8a1.45,1.45,0,0,0,0,2.9h8a1.45,1.45,0,0,0,0-2.9ZM85.19,55a1.37,1.37,0,0,0-1.45-1.45H66.08l4.2,7.24H85.19ZM77.95,82.5a2.17,2.17,0,1,0,2.17,2.17A2.23,2.23,0,0,0,77.95,82.5Z"/></svg>