<svg xmlns="http://www.w3.org/2000/svg" viewBox="0 0 100 100"><defs><style>.a{fill:#203143;}</style></defs><title>Zeichenfläche 1 Kopie 2</title><path class="a" d="M73.62,47.83A22.6,22.6,0,0,1,62.46,57.1a6.42,6.42,0,0,1-2.32.29,6.59,6.59,0,0,1-5.51-2.9l-2,.72A6.47,6.47,0,0,0,48.4,61.3v3.91H63.62c1.74,0,2.9,1.3,2.75,3.33l-.44,4.35A2.84,2.84,0,0,1,63,75.36l-2.9,22.17a2.84,2.84,0,0,1-2.9,2.46H36.67a2.84,2.84,0,0,1-2.9-2.46l-2.9-22.17A2.84,2.84,0,0,1,28,72.9l-.58-4.35a2.87,2.87,0,0,1,2.9-3.33H45.51V43.48a16,16,0,0,1-2.61-.29,6.3,6.3,0,0,1-5.22-5.36,6,6,0,0,1-2.32.44,6.18,6.18,0,0,1-4.93-2.32,19.9,19.9,0,0,1-3.91-6.81,6.53,6.53,0,0,1-.44-2.32,6.61,6.61,0,0,1,2.46-5.07,6.61,6.61,0,0,1-2.46-5.07,5.79,5.79,0,0,1,.44-2.17,19.91,19.91,0,0,1,3.91-6.81,6.19,6.19,0,0,1,4.93-2.32,6,6,0,0,1,2.32.44A6.46,6.46,0,0,1,42.9.29,19.05,19.05,0,0,1,47,0a17.73,17.73,0,0,1,3.91.29A6.46,6.46,0,0,1,56.09,5.8a6,6,0,0,1,2.32-.44,6.49,6.49,0,0,1,5.07,2.32,19.9,19.9,0,0,1,3.91,6.81,5.61,5.61,0,0,1,.29,2.17,6.48,6.48,0,0,1-2.32,5.07,6.48,6.48,0,0,1,2.32,5.07,6.35,6.35,0,0,1-.29,2.32,19.89,19.89,0,0,1-3.91,6.81,6.49,6.49,0,0,1-5.07,2.32,6,6,0,0,1-2.32-.44,6.3,6.3,0,0,1-5.22,5.36,14.32,14.32,0,0,1-2.46.29v11a8,8,0,0,1,3.19-2l2.17-.73a5.15,5.15,0,0,1-.14-.87A6.6,6.6,0,0,1,58,44.78a20.85,20.85,0,0,1,7.39-1.31,22.74,22.74,0,0,1,7.1,1.16,2,2,0,0,1,1.45,2A2.71,2.71,0,0,1,73.62,47.83ZM38.55,10a3.78,3.78,0,0,0-3.19-1.74,3.83,3.83,0,0,0-2.75,1.31,18.82,18.82,0,0,0-3.48,5.94A3.2,3.2,0,0,0,29,16.67a3.59,3.59,0,0,0,3.62,3.62h8A6,6,0,0,1,42.46,17Zm2,13.19h-8A3.59,3.59,0,0,0,29,26.81a4,4,0,0,0,.14,1.31,18.82,18.82,0,0,0,3.48,5.94,3.84,3.84,0,0,0,2.75,1.31,3.91,3.91,0,0,0,3.19-1.88l3.91-7A6,6,0,0,1,40.58,23.19Zm9.71-20A26,26,0,0,0,47,2.9a28.25,28.25,0,0,0-3.48.29,3.6,3.6,0,0,0-2.9,3.62A3.47,3.47,0,0,0,41,8.55l3.91,7a8.58,8.58,0,0,1,2-.29,7.36,7.36,0,0,1,1.88.29l3.91-7a3.57,3.57,0,0,0,.58-1.74A3.72,3.72,0,0,0,50.29,3.19Zm2.46,31.74-3.91-7a7.25,7.25,0,0,1-1.88.29,8.44,8.44,0,0,1-2-.29l-3.91,7a3.46,3.46,0,0,0-.44,1.74,3.59,3.59,0,0,0,2.9,3.62,28.26,28.26,0,0,0,3.48.29,26,26,0,0,0,3.33-.29,3.72,3.72,0,0,0,3-3.62A3.56,3.56,0,0,0,52.75,34.93ZM64.64,15.51a18.82,18.82,0,0,0-3.48-5.94,3.83,3.83,0,0,0-2.75-1.31,3.53,3.53,0,0,0-3,1.74L51.3,17a6.18,6.18,0,0,1,2,3.33h7.83a3.59,3.59,0,0,0,3.62-3.62A3.2,3.2,0,0,0,64.64,15.51Zm-3.48,7.68h-8a6,6,0,0,1-1.88,3.33l4.06,7a3.66,3.66,0,0,0,3,1.88,3.84,3.84,0,0,0,2.75-1.31,18.82,18.82,0,0,0,3.48-5.94,4,4,0,0,0,.14-1.31A3.59,3.59,0,0,0,61.16,23.19Z"/></svg>