<svg xmlns="http://www.w3.org/2000/svg" viewBox="0 0 100 100"><defs><style>.a{fill:#e0ff12;}</style></defs><title>Zeichenfläche 1 Kopie 3</title><path class="a" d="M74.41,94.09,61.82,95.24c0,2.9-1.88,4.63-4.34,4.63H38.66c-2.46,0-4.34-1.74-4.34-4.63L21.72,94.09a3.7,3.7,0,0,1-3.33-2.9A10.8,10.8,0,0,1,8.26,80.33a10.86,10.86,0,0,1,21.71,0,11.33,11.33,0,0,1-2.17,6.51H39.38V37.92a4.32,4.32,0,0,1,2.17-3.77l5.07-2.89v-2.9a10.79,10.79,0,0,1-9.41-10.71C37.21,8,42.57,0,49.08,0a4.27,4.27,0,0,1,4.34,4.34A8,8,0,0,0,55.74,10a10.6,10.6,0,0,1,3.19,7.67,10.79,10.79,0,0,1-9.41,10.71v2.9l5.07,2.89a4.32,4.32,0,0,1,2.17,3.77V86.85H74.12a3.58,3.58,0,0,1,3.62,3.62A3.63,3.63,0,0,1,74.41,94.09ZM19.12,73.82a6.51,6.51,0,1,0,6.51,6.51A6.49,6.49,0,0,0,19.12,73.82ZM53.71,12a10.61,10.61,0,0,1-3.18-7.67A1.37,1.37,0,0,0,49.08,2.9c-4.92,0-9,6.66-9,14.76A8,8,0,1,0,53.71,12Zm.15,25.91a1.29,1.29,0,0,0-.73-1.16l-4.34-2.61a1.32,1.32,0,0,0-1.45,0L43,36.76a1.29,1.29,0,0,0-.73,1.16V86.85H53.86Zm-5.79-15.2a4.27,4.27,0,0,1-4.34-4.34,9.56,9.56,0,0,1,2.46-6.81A1.79,1.79,0,0,1,47.34,11a1.55,1.55,0,0,1,1.3,1,10.81,10.81,0,0,0,2.17,2.9,4.2,4.2,0,0,1,1.59,3.47A4.27,4.27,0,0,1,48.07,22.72Z"/></svg>