<svg xmlns="http://www.w3.org/2000/svg" viewBox="0 0 100 100"><defs><style>.a{fill:#e0ff12;}</style></defs><title>Zeichenfläche 1 Kopie 3</title><path class="a" d="M95.91,76.84l-9.07,2.4A5.43,5.43,0,0,1,80,73.88V64.26L77.4,65a3.57,3.57,0,0,0-2.78,3.52,2.71,2.71,0,0,0,.37,1.3A16,16,0,0,1,75.92,75a13.88,13.88,0,0,1-27.77,0,16,16,0,0,1,.93-5.18,2.71,2.71,0,0,0,.37-1.3,3.71,3.71,0,0,0-3.7-3.7H30.19a3.72,3.72,0,0,0-3.7,3.7,2.71,2.71,0,0,0,.37,1.3A16,16,0,0,1,27.78,75,14,14,0,0,1,13.9,88.88,13.92,13.92,0,0,1,5.76,63.7L3.91,56.48c0-.38-.18-.56-.18-.93V44.44A53.27,53.27,0,0,1,5.57,30L8,21.31a3.57,3.57,0,0,1,3.52-2.78h12A17.73,17.73,0,0,0,36.3,13.34a7.88,7.88,0,0,1,5.37-2.22,7.12,7.12,0,0,1,5.56,2.77A61.07,61.07,0,0,0,85,35.38a11,11,0,0,1,9.44,10.92V60.36l4.81,8.33a4.81,4.81,0,0,1,.74,2.78A5.39,5.39,0,0,1,95.91,76.84Zm-82-12a10.18,10.18,0,0,0,0,20.37,10.18,10.18,0,1,0,0-20.37ZM90.73,46.29a7.56,7.56,0,0,0-6.3-7.4,63.64,63.64,0,0,1-40-22.77,3.93,3.93,0,0,0-2.78-1.29,3.78,3.78,0,0,0-2.78,1.11,20.79,20.79,0,0,1-15.36,6.3h-12l-2.22,8.7A54.08,54.08,0,0,0,7.42,44.44v3.7H90.73Zm0,5.56H7.42v3.7H90.73ZM13.9,79.62A4.63,4.63,0,1,1,18.53,75,4.58,4.58,0,0,1,13.9,79.62ZM44.08,28.16a2.78,2.78,0,1,1,2.78-2.78A2.85,2.85,0,0,1,44.08,28.16Zm8.52,7.22a2.78,2.78,0,1,1,2.78-2.78A2.85,2.85,0,0,1,52.59,35.38ZM62,64.8A10.18,10.18,0,1,0,72.22,75,10.27,10.27,0,0,0,62,64.8Zm0,14.81A4.63,4.63,0,1,1,66.66,75,4.58,4.58,0,0,1,62,79.62ZM62,41.3a2.78,2.78,0,1,1,2.78-2.77A2.84,2.84,0,0,1,62,41.3Zm28.69,20-7,2V73.88a1.62,1.62,0,0,0,2.22,1.67L95,73.32a2,2,0,0,0,1.11-2.78Z"/></svg>