<svg xmlns="http://www.w3.org/2000/svg" viewBox="0 0 100 100"><defs><style>.a{fill:#d2d9df;}</style></defs><title>Zeichenfläche 1 Kopie</title><path class="a" d="M82.5,91.83,83.83,98a1.67,1.67,0,0,1-1.66,2h-1a1.61,1.61,0,0,1-1.5-1.17l-1.83-5.67a15.05,15.05,0,0,1-2.83.17,19.89,19.89,0,0,1-16.17-8.16L46.5,86.33,47,90.5l3.5-.33a2.36,2.36,0,0,1,2.5,2.5,2.39,2.39,0,0,1-2.17,2.5l-10.17,1a2.36,2.36,0,0,1-2.5-2.5,2.24,2.24,0,0,1,2.16-2.33l3.33-.49-.5-4L40.5,87c-5.67.33-10-1.33-13-4.84a25.07,25.07,0,0,0-13.83,15.5A3.41,3.41,0,0,1,10.5,100H8.84A3.3,3.3,0,0,1,5.5,96.17a37.32,37.32,0,0,1,17-25.33L19,60a5.28,5.28,0,0,1,3.33-6.33L17,37a23.88,23.88,0,0,1-7-1.5,7.42,7.42,0,0,1-5-7.17A3.35,3.35,0,0,1,8.34,25H36.17a3.35,3.35,0,0,1,3.33,3.33A3.49,3.49,0,0,1,38.17,31a28.3,28.3,0,0,1-10.84,5.16l4.5,14.5A8.41,8.41,0,0,1,34,50.33a7.45,7.45,0,0,1,2.67.5l11.17,3.5,19.5-42A1.59,1.59,0,0,0,65.83,10H52.5a3.35,3.35,0,0,1-3.33-3.33V3.33A3.35,3.35,0,0,1,52.5,0H65.83A11.6,11.6,0,0,1,77.5,11.67a12.19,12.19,0,0,1-1.17,5L57.5,57.33l4,1.33A19.62,19.62,0,0,1,75,53.33a20,20,0,0,1,7.5,38.5ZM24,36.83a24.5,24.5,0,0,1-3.5.33l5,15.5,3.17-1ZM75.67,66.67l-31-3.33H43.5a10,10,0,0,0-.66,20L42.5,79a5.8,5.8,0,1,1,6.84-5.67,5.48,5.48,0,0,1-3.5,5.34l.34,4.5,27.49-3-1.83-6a3.28,3.28,0,1,1,6.34-1.66l1.33,5.83a6.64,6.64,0,0,0,2.16-5A6.83,6.83,0,0,0,75.67,66.67ZM43.5,70.84a2.5,2.5,0,1,0,2.5,2.5A2.56,2.56,0,0,0,43.5,70.84ZM63.17,29.16,51,55.33l3.17,1,12-25.67ZM74.67,83.5,65,84.5a15.21,15.21,0,0,0,10,3.83h1.33ZM75,58.34a14.7,14.7,0,0,0-7.66,2.16L78,63.83a10.06,10.06,0,0,1,7,9.5,9.94,9.94,0,0,1-4.67,8.5l1,5A14.74,14.74,0,0,0,90,73.33,14.94,14.94,0,0,0,75,58.34Z"/></svg>