<svg xmlns="http://www.w3.org/2000/svg" viewBox="0 0 100 100"><defs><style>.a{fill:#d2d9df;}</style></defs><title>Zeichenfläche 1 Kopie</title><path class="a" d="M52.56,13.49a4.12,4.12,0,0,1-3.48,1.23,16.88,16.88,0,0,0-13.63,4.82,3.57,3.57,0,0,0-.51,4.41l3,5.43L53.28,44.75a2.91,2.91,0,0,1,4.1,0l1,1a4,4,0,0,1,1.23,3.07,5,5,0,0,0,1.53,3.79L85.35,76.83A4.7,4.7,0,0,0,89,78.26a4.28,4.28,0,0,1,3.18,1.34l1,1a2.91,2.91,0,0,1,0,4.1L84,93.94a2.91,2.91,0,0,1-4.1,0l-1-1a4.41,4.41,0,0,1-1.23-3.28A4.59,4.59,0,0,0,76.13,86L51.94,61.86a4.91,4.91,0,0,0-3.69-1.64,4.09,4.09,0,0,1-3.17-1.13l-1-1a2.91,2.91,0,0,1,0-4.1L28.68,38.6l-5.84-3.38a2.86,2.86,0,0,0-4.3,2.87,4.32,4.32,0,0,1-1.23,3.69L12.18,46.9.91,35.63,6,30.5a4.31,4.31,0,0,1,3.69-1.23A2.9,2.9,0,0,0,13,26a4.31,4.31,0,0,1,1.23-3.69L23,13.49A28.06,28.06,0,0,1,50.72,6.32a4.73,4.73,0,0,1,1.84,1A4.27,4.27,0,0,1,52.56,13.49ZM50,9.08a25.55,25.55,0,0,0-24.9,6.46l-8.81,8.81a1.78,1.78,0,0,0-.41,1.23,5.64,5.64,0,0,1-1.64,4.92,5.64,5.64,0,0,1-4.92,1.64,1.77,1.77,0,0,0-1.23.41L5,35.63l7.17,7.17,3.07-3.07a1.79,1.79,0,0,0,.41-1.23,5.63,5.63,0,0,1,1.64-4.92,5.91,5.91,0,0,1,7.07-.92L30.22,36l.51.51,5.12-5.12c-.2-.2-.21-.41-.41-.61l-3.18-5.43a6.57,6.57,0,0,1,1.13-7.89,19.39,19.39,0,0,1,16-5.54,1.64,1.64,0,0,0,1.13-.51,1.37,1.37,0,0,0,0-2.05C50.31,9.19,50.2,9.09,50,9.08ZM37.91,33.48,32.78,38.6,46.1,51.92l5.12-5.12Z"/></svg>