<svg xmlns="http://www.w3.org/2000/svg" viewBox="0 0 100 100"><defs><style>.a{fill:#e0ff12;}</style></defs><title>Zeichenfläche 1 Kopie 3</title><path class="a" d="M82.93,81a17.9,17.9,0,0,1-15.12,8.21c-2.38,0-4.76,0-7.14-.12l-1.55,8.81a2.58,2.58,0,0,1-2.74,2l-3.21-.59a2.54,2.54,0,0,1-2-2.38V88.66A217.4,217.4,0,0,1,24.5,85.21l-.71,4.4a2.53,2.53,0,0,1-2.38,2A2.39,2.39,0,0,1,19,89.25V79.74a2.39,2.39,0,0,1,2.38-2.38h35.7V69H29a3.51,3.51,0,0,1-3.57-3.57A80.18,80.18,0,0,1,53.66,4.4a3.77,3.77,0,0,1,2.26-.83h1.19V1.78a1.78,1.78,0,0,1,3.57,0V20.11h1.19a3.5,3.5,0,0,1,3,1.67A123.83,123.83,0,0,1,83.29,69.62v.6a3.51,3.51,0,0,1-3.57,3.57h-19v3.57H80.91a2.39,2.39,0,0,1,2.38,2.38A2.42,2.42,0,0,1,82.93,81ZM57.11,6H55.92a1.13,1.13,0,0,0-.83.24A77.94,77.94,0,0,0,27.83,65.45,1.12,1.12,0,0,0,29,66.64H57.11Zm23.8,64A120.94,120.94,0,0,0,62.82,23.09a1.07,1.07,0,0,0-1-.59H60.68V71.4h19a1.13,1.13,0,0,0,1.19-1.19Z"/></svg>