<?xml version="1.0" encoding="utf-8"?>
<!-- Generator: Adobe Illustrator 21.0.0, SVG Export Plug-In . SVG Version: 6.00 Build 0)  -->
<svg version="1.1" id="Ebene_1" xmlns="http://www.w3.org/2000/svg" xmlns:xlink="http://www.w3.org/1999/xlink" x="0px" y="0px"
	 viewBox="0 0 100 100" style="enable-background:new 0 0 100 100;" xml:space="preserve">
<style type="text/css">
	.st0{fill:#D2D9DF;}
</style>
<title>Zeichenfläche 1 Kopie</title>
<path class="st0" d="M58.9,50l30.2-30.2c0.4-0.4,0.4-1,0-1.4c0,0,0,0,0,0l-7.4-7.5c-0.4-0.4-1-0.4-1.4,0c0,0,0,0,0,0L50,41.1
	L19.8,10.9c-0.4-0.4-1-0.4-1.4,0c0,0,0,0,0,0l-7.4,7.4c-0.4,0.4-0.4,1,0,1.4c0,0,0,0,0,0L41.1,50L10.9,80.2c-0.4,0.4-0.4,1,0,1.4
	c0,0,0,0,0,0l7.4,7.4c0.4,0.4,1,0.4,1.4,0c0,0,0,0,0,0L50,58.9l30.2,30.2c0.4,0.4,1,0.4,1.4,0c0,0,0,0,0,0l7.4-7.4
	c0.4-0.4,0.4-1,0-1.4c0,0,0,0,0,0L58.9,50z"/>
</svg>
