<svg xmlns="http://www.w3.org/2000/svg" width="100" height="100" viewBox="0 0 100 100"><defs><style>.a{fill:#203143;}</style></defs><title>Zeichenfläche 1 Kopie 8</title><path class="a" d="M90.07,85.33A6.17,6.17,0,0,1,83.9,91.5a5.72,5.72,0,0,1-4.33-1.83L63,73.2a33,33,0,0,1-19.21,6A33.33,33.33,0,0,1,30.66,76.5,33.19,33.19,0,0,1,12.61,58.44a33.8,33.8,0,0,1,0-26.34A33.22,33.22,0,0,1,30.66,14,33.8,33.8,0,0,1,57,14,33.25,33.25,0,0,1,75.07,32.1a33.34,33.34,0,0,1,2.67,13.17,33,33,0,0,1-6,19.21L88.28,81A5.9,5.9,0,0,1,90.07,85.33Zm-31-24.82a20.77,20.77,0,0,0,6.33-15.24A20.77,20.77,0,0,0,59.08,30,20.77,20.77,0,0,0,43.84,23.7,20.77,20.77,0,0,0,28.59,30a20.78,20.78,0,0,0-6.33,15.24,20.78,20.78,0,0,0,6.33,15.24,20.78,20.78,0,0,0,15.24,6.33A20.78,20.78,0,0,0,59.08,60.51Zm.17-16.78v3.08a1.56,1.56,0,0,1-1.54,1.54H46.92V59.14a1.57,1.57,0,0,1-1.54,1.54H42.29a1.48,1.48,0,0,1-1.09-.46,1.47,1.47,0,0,1-.46-1.08V48.35H30a1.47,1.47,0,0,1-1.08-.46,1.48,1.48,0,0,1-.46-1.09V43.73A1.57,1.57,0,0,1,30,42.19H40.75V31.4a1.56,1.56,0,0,1,1.54-1.54h3.08a1.57,1.57,0,0,1,1.54,1.54V42.19H57.71a1.57,1.57,0,0,1,1.54,1.54Z"/></svg>