<svg xmlns="http://www.w3.org/2000/svg" width="100" height="100" viewBox="0 0 100 100"><defs><style>.a{fill:#e0ff12;}</style></defs><title>Zeichenfläche 1 Kopie 6</title><path class="a" d="M91.08,85.33a6.17,6.17,0,0,1-6.17,6.17,5.72,5.72,0,0,1-4.33-1.83L64.06,73.2a33,33,0,0,1-19.21,6A33.33,33.33,0,0,1,31.67,76.5,33.19,33.19,0,0,1,13.62,58.44a33.8,33.8,0,0,1,0-26.34A33.22,33.22,0,0,1,31.67,14,33.8,33.8,0,0,1,58,14,33.25,33.25,0,0,1,76.08,32.1a33.34,33.34,0,0,1,2.67,13.17,33,33,0,0,1-6,19.21L89.29,81A5.9,5.9,0,0,1,91.08,85.33Zm-31-24.82a20.77,20.77,0,0,0,6.33-15.24A20.77,20.77,0,0,0,60.08,30,20.77,20.77,0,0,0,44.85,23.7,20.77,20.77,0,0,0,29.6,30a20.78,20.78,0,0,0-6.33,15.24A20.78,20.78,0,0,0,29.6,60.51a20.78,20.78,0,0,0,15.24,6.33A20.78,20.78,0,0,0,60.08,60.51Zm.17-16.78v3.08a1.56,1.56,0,0,1-1.54,1.54H47.93V59.14a1.57,1.57,0,0,1-1.54,1.54H43.3a1.48,1.48,0,0,1-1.09-.46,1.47,1.47,0,0,1-.46-1.08V48.35H31a1.47,1.47,0,0,1-1.08-.46,1.48,1.48,0,0,1-.46-1.09V43.73A1.57,1.57,0,0,1,31,42.19H41.76V31.4a1.56,1.56,0,0,1,1.54-1.54h3.08a1.57,1.57,0,0,1,1.54,1.54V42.19H58.71a1.57,1.57,0,0,1,1.54,1.54Z"/></svg>