<svg xmlns="http://www.w3.org/2000/svg" viewBox="0 0 100 100"><defs><style>.a{fill:#d7e9ff;}.b{fill:#54637a;}</style></defs><title>Zeichenfläche 1 Kopie 4</title><path class="a" d="M49.34,10.63,33,11.23A32.46,32.46,0,0,0,1.89,44.77h0A32.1,32.1,0,0,0,7.68,62l-7,12.85a3.29,3.29,0,0,0,4.81,4.49l11.73-8.29a32.13,32.13,0,0,0,18.21,4.85l16.29-.6A32.46,32.46,0,0,0,82.88,41.79h0A32.46,32.46,0,0,0,49.34,10.63Z"/><path class="b" d="M55.77,35.23l13.33-.49A26.56,26.56,0,0,1,96.54,60.23h0a26.27,26.27,0,0,1-3.69,14.42l6.49,10.06a2.69,2.69,0,0,1-3.66,4L85.61,82.62A26.29,26.29,0,0,1,71,87.67l-13.33.49A26.56,26.56,0,0,1,30.28,62.67h0A26.56,26.56,0,0,1,55.77,35.23Z"/></svg>