<svg xmlns="http://www.w3.org/2000/svg" viewBox="0 0 100 100"><defs><style>.a{fill:#203143;}.b{fill:#54637a;}</style></defs><title>Zeichenfläche 1 Kopie 2</title><path class="a" d="M52,9.76H35.66A32.46,32.46,0,0,0,3.29,42.13h0A32.1,32.1,0,0,0,8.44,59.58L1,72.17a3.29,3.29,0,0,0,4.65,4.67l12-7.85a32.13,32.13,0,0,0,18,5.52H52A32.46,32.46,0,0,0,84.33,42.13h0A32.46,32.46,0,0,0,52,9.76Z"/><path class="b" d="M57.48,34.58H70.82A26.56,26.56,0,0,1,97.31,61.06h0a26.27,26.27,0,0,1-4.22,14.28l6.12,10.3a2.69,2.69,0,0,1-3.8,3.82L85.56,83a26.29,26.29,0,0,1-14.74,4.51H57.48A26.56,26.56,0,0,1,31,61.06h0A26.56,26.56,0,0,1,57.48,34.58Z"/></svg>