<svg xmlns="http://www.w3.org/2000/svg" viewBox="0 0 100 100"><defs><style>.a{fill:#e0ff12;}</style></defs><title>Zeichenfläche 1 Kopie 3</title><path class="a" d="M99.21,85.64l-6.12-10.3a26.27,26.27,0,0,0,4.22-14.28h0A26.54,26.54,0,0,0,84.08,38.17,32.48,32.48,0,0,0,52,9.76H35.66A32.46,32.46,0,0,0,3.29,42.13h0A32.1,32.1,0,0,0,8.44,59.58L1,72.17a3.29,3.29,0,0,0,4.65,4.67l12-7.85a32.13,32.13,0,0,0,17,5.48A26.53,26.53,0,0,0,57.48,87.55H70.82A26.29,26.29,0,0,0,85.56,83l9.84,6.42a2.69,2.69,0,0,0,3.8-3.82Z"/></svg>