<svg xmlns="http://www.w3.org/2000/svg" width="100" height="100" viewBox="0 0 100 100"><defs><style>.a{fill:#d2d9df;}</style></defs><title>Zeichenfläche 1</title><path class="a" d="M57.67,75.84H38.85v-2.7q.85-.5,1.78-.92a15.65,15.65,0,0,1,2.13-.78V57.06q0-6.12-1.17-9A4.48,4.48,0,0,0,37,45.17a6.62,6.62,0,0,0-4.83,2,11.24,11.24,0,0,0-2.84,4.52V71.43a15.82,15.82,0,0,1,2,.64,9.08,9.08,0,0,1,1.88,1.07v2.7H14.44v-2.7a19.76,19.76,0,0,1,4.68-1.71V28.28l-5.39-.57V25a22.57,22.57,0,0,1,2.73-.85q1.67-.43,3.51-.75t3.69-.57q1.84-.25,3.26-.39h2.41V47.52h.07a12.86,12.86,0,0,1,1.92-3.09,14.76,14.76,0,0,1,2.73-2.56,13.34,13.34,0,0,1,3.3-1.74,11,11,0,0,1,3.76-.64,17.52,17.52,0,0,1,5.08.68,7.86,7.86,0,0,1,3.73,2.38,11.43,11.43,0,0,1,2.27,4.59A28.43,28.43,0,0,1,53,54.43v17q1.21.28,2.41.64a8.32,8.32,0,0,1,2.27,1.07Z"/><path class="a" d="M86.27,75.84H61.71V72.79Q63.49,72,65.3,71.4t3.66-1V37.79l.28-4.19a19.93,19.93,0,0,1-4.12.85,33.63,33.63,0,0,1-4.4.14L60.36,32a80.18,80.18,0,0,0,8.2-2.7,51.67,51.67,0,0,0,8.2-4h2.41V70.37q1.77.43,3.55,1t3.55,1.38Z"/></svg>