<?xml version="1.0" encoding="utf-8"?>
<!-- Generator: Adobe Illustrator 21.1.0, SVG Export Plug-In . SVG Version: 6.00 Build 0)  -->
<svg version="1.1" id="Ebene_1" xmlns="http://www.w3.org/2000/svg" xmlns:xlink="http://www.w3.org/1999/xlink" x="0px" y="0px"
	 viewBox="0 0 100 100" style="enable-background:new 0 0 100 100;" xml:space="preserve">
<style type="text/css">
	.st0{fill:#203143;}
</style>
<title>Zeichenfläche 1 Kopie 7</title>
<title>Zeichenfläche 1 Kopie 8</title>
<path class="st0" d="M18.3,31H9.8v-0.9c0.5-0.2,1-0.4,1.5-0.6c0.5-0.2,1-0.3,1.5-0.4V15l0.1-1.7c-0.5,0.2-1.1,0.4-1.7,0.5
	c-0.6,0.1-1.2,0.1-1.8,0.1l-0.1-0.7c0.9-0.3,1.9-0.7,2.8-1.1c0.9-0.4,1.8-1,2.7-1.6h0.7v18.8c0.5,0.1,1,0.3,1.5,0.4
	c0.5,0.2,1,0.4,1.5,0.6L18.3,31z M10.2,46.7H9.5c-0.2-0.6-0.4-1.2-0.7-2c-0.2-0.7-0.4-1.5-0.6-2.1c0.7-0.6,1.6-1.1,2.5-1.4
	c1-0.3,2-0.5,3.1-0.5c0.9,0,1.7,0.1,2.5,0.4c0.6,0.2,1.2,0.6,1.7,1.1c0.4,0.5,0.8,1,1,1.6c0.2,0.6,0.3,1.3,0.3,1.9
	c0,1.2-0.3,2.3-0.8,3.3c-0.5,1.2-1.2,2.3-1.9,3.3c-0.7,1.1-1.5,2.1-2.4,3c-0.9,0.9-1.7,1.8-2.4,2.5L10.7,59v0.1l1.6-0.2h5l1.4-3.2
	h0.7c0,0.4,0.1,0.9,0.1,1.4c0,0.5,0.1,1,0.1,1.5c0,0.5,0.1,1,0.1,1.5c0,0.5,0,0.9,0,1.2h-12v-0.9l1.6-1.6c0.6-0.6,1.2-1.3,1.9-2.1
	c0.7-0.8,1.3-1.6,2-2.5c0.6-0.8,1.2-1.7,1.7-2.7c0.5-0.9,0.9-1.8,1.2-2.7c0.3-0.8,0.5-1.7,0.5-2.6c0-0.5-0.1-1.1-0.2-1.6
	c-0.1-0.5-0.4-0.9-0.7-1.3c-0.6-0.8-1.5-1.2-2.5-1.2c-0.4,0-0.7,0-1.1,0.1c-0.3,0.1-0.7,0.2-1,0.3L10.2,46.7z M13.3,89.6
	c0.5,0,1-0.1,1.5-0.4c0.5-0.2,0.9-0.6,1.2-1c0.4-0.4,0.6-0.9,0.8-1.4c0.2-0.5,0.3-1.1,0.3-1.7c0-0.6-0.1-1.3-0.3-1.9
	c-0.2-0.5-0.5-1-0.9-1.3c-0.4-0.4-0.8-0.6-1.3-0.8c-0.5-0.2-1.1-0.3-1.7-0.3H11V80l4.9-6.5l1-1v-0.1l-1.6,0.2h-4.9l-1.1,3H8.5
	c-0.1-0.4-0.1-0.8-0.2-1.3c-0.1-0.5-0.1-0.9-0.2-1.4C8.1,72.4,8,71.9,8,71.5c0-0.4-0.1-0.8-0.1-1.2h11.3v0.9l-4.8,6.5L13.2,79V79
	l1-0.2c0.8,0,1.7,0.2,2.4,0.5c0.7,0.3,1.3,0.7,1.8,1.2c0.5,0.5,0.9,1.1,1.1,1.8c0.3,0.7,0.4,1.5,0.4,2.2c0,0.9-0.2,1.8-0.6,2.6
	c-0.4,0.8-0.9,1.4-1.6,2c-0.7,0.6-1.4,1-2.2,1.3c-0.9,0.3-1.8,0.5-2.7,0.5c-0.5,0-1,0-1.4-0.1c-0.5-0.1-1-0.2-1.5-0.3
	c-0.5-0.1-0.9-0.3-1.3-0.5c-0.4-0.2-0.7-0.4-1.1-0.6l0.8-2.6H9c0.1,0.1,0.3,0.3,0.5,0.5l0.6,0.7c0.2,0.2,0.4,0.5,0.7,0.7l0.5,0.6
	l0.8,0.1C12.5,89.6,12.9,89.6,13.3,89.6z M91.5,25.7H30c-0.5,0-0.9-0.4-0.9-0.9v0v-8.2c0-0.5,0.4-0.9,0.9-0.9l0,0h61.5
	c0.5,0,0.9,0.4,0.9,0.9v0v8.2C92.4,25.3,92,25.7,91.5,25.7C91.5,25.7,91.5,25.7,91.5,25.7z M92.6,54.7v-8.2c0-0.5-0.4-0.9-0.9-0.9
	l0,0H30c-0.5,0-0.9,0.4-0.9,0.9v8.2c0,0.5,0.4,0.9,0.9,0.9h61.7C92.2,55.5,92.6,55.1,92.6,54.7L92.6,54.7z M92.4,84.5v-8.2
	c0-0.5-0.4-0.9-0.9-0.9c0,0,0,0,0,0H30c-0.5,0-0.9,0.4-0.9,0.9l0,0v8.2c0,0.5,0.4,0.9,0.9,0.9c0,0,0,0,0,0h61.5
	C92,85.4,92.4,85,92.4,84.5L92.4,84.5z"/>
</svg>
