<?xml version="1.0" encoding="utf-8"?>
<!-- Generator: Adobe Illustrator 21.1.0, SVG Export Plug-In . SVG Version: 6.00 Build 0)  -->
<svg version="1.1" id="Ebene_1" xmlns="http://www.w3.org/2000/svg" xmlns:xlink="http://www.w3.org/1999/xlink" x="0px" y="0px"
	 viewBox="0 0 100 100" style="enable-background:new 0 0 100 100;" xml:space="preserve">
<style type="text/css">
	.st0{fill:#E0FF12;}
</style>
<title>Zeichenfläche 1 Kopie 8</title>
<path class="st0" d="M19.3,30h-8.5v-0.9c0.5-0.2,1-0.4,1.5-0.6c0.5-0.2,1-0.3,1.5-0.4V14l0.1-1.7c-0.5,0.2-1.1,0.4-1.7,0.5
	c-0.6,0.1-1.2,0.1-1.8,0.1l-0.1-0.7c0.9-0.3,1.9-0.7,2.8-1.1c0.9-0.4,1.8-1,2.7-1.6h0.7v18.8c0.5,0.1,1,0.3,1.5,0.4
	c0.5,0.2,1,0.4,1.5,0.6L19.3,30z M11.2,45.7h-0.7c-0.2-0.6-0.4-1.2-0.7-2c-0.2-0.7-0.4-1.5-0.6-2.1c0.7-0.6,1.6-1.1,2.5-1.4
	c1-0.3,2-0.5,3.1-0.5c0.9,0,1.7,0.1,2.5,0.4c0.6,0.2,1.2,0.6,1.7,1.1c0.4,0.5,0.8,1,1,1.6c0.2,0.6,0.3,1.3,0.3,1.9
	c0,1.2-0.3,2.3-0.8,3.3c-0.5,1.2-1.2,2.3-1.9,3.3c-0.7,1.1-1.5,2.1-2.4,3c-0.9,0.9-1.7,1.8-2.4,2.5L11.7,58v0.1l1.6-0.2h5l1.4-3.2
	h0.7c0,0.4,0.1,0.9,0.1,1.4c0,0.5,0.1,1,0.1,1.5c0,0.5,0.1,1,0.1,1.5c0,0.5,0,0.9,0,1.2h-12v-0.9l1.6-1.6c0.6-0.6,1.2-1.3,1.9-2.1
	c0.7-0.8,1.3-1.6,2-2.5c0.6-0.8,1.2-1.7,1.7-2.7c0.5-0.9,0.9-1.8,1.2-2.7c0.3-0.8,0.5-1.7,0.5-2.6c0-0.5-0.1-1.1-0.2-1.6
	c-0.1-0.5-0.4-0.9-0.7-1.3c-0.6-0.8-1.5-1.2-2.5-1.2c-0.4,0-0.7,0-1.1,0.1c-0.3,0.1-0.7,0.2-1,0.3L11.2,45.7z M14.3,88.6
	c0.5,0,1-0.1,1.5-0.4c0.5-0.2,0.9-0.6,1.2-1c0.4-0.4,0.6-0.9,0.8-1.4c0.2-0.5,0.3-1.1,0.3-1.7c0-0.6-0.1-1.3-0.3-1.9
	c-0.2-0.5-0.5-1-0.9-1.3c-0.4-0.4-0.8-0.6-1.3-0.8c-0.5-0.2-1.1-0.3-1.7-0.3H12V79l4.9-6.5l1-1v-0.1l-1.6,0.2h-4.9l-1.1,3H9.5
	c-0.1-0.4-0.1-0.8-0.2-1.3c-0.1-0.5-0.1-0.9-0.2-1.4C9.1,71.4,9,70.9,9,70.5c0-0.4-0.1-0.8-0.1-1.2h11.3v0.9l-4.8,6.5L14.2,78V78
	l1-0.2c0.8,0,1.7,0.2,2.4,0.5c0.7,0.3,1.3,0.7,1.8,1.2c0.5,0.5,0.9,1.1,1.1,1.8c0.3,0.7,0.4,1.5,0.4,2.2c0,0.9-0.2,1.8-0.6,2.6
	c-0.4,0.8-0.9,1.4-1.6,2c-0.7,0.6-1.4,1-2.2,1.3c-0.9,0.3-1.8,0.5-2.7,0.5c-0.5,0-1,0-1.4-0.1c-0.5-0.1-1-0.2-1.5-0.3
	c-0.5-0.1-0.9-0.3-1.3-0.5c-0.4-0.2-0.7-0.4-1.1-0.6l0.8-2.6H10c0.1,0.1,0.3,0.3,0.5,0.5l0.6,0.7c0.2,0.2,0.4,0.5,0.7,0.7l0.5,0.6
	l0.8,0.1C13.5,88.6,13.9,88.6,14.3,88.6z M92.5,24.7H31c-0.5,0-0.9-0.4-0.9-0.9v0v-8.2c0-0.5,0.4-0.9,0.9-0.9l0,0h61.5
	c0.5,0,0.9,0.4,0.9,0.9v0v8.2C93.4,24.3,93,24.7,92.5,24.7C92.5,24.7,92.5,24.7,92.5,24.7z M93.6,53.7v-8.2c0-0.5-0.4-0.9-0.9-0.9
	l0,0H31c-0.5,0-0.9,0.4-0.9,0.9v8.2c0,0.5,0.4,0.9,0.9,0.9h61.7C93.2,54.5,93.6,54.1,93.6,53.7L93.6,53.7z M93.4,83.5v-8.2
	c0-0.5-0.4-0.9-0.9-0.9c0,0,0,0,0,0H31c-0.5,0-0.9,0.4-0.9,0.9l0,0v8.2c0,0.5,0.4,0.9,0.9,0.9c0,0,0,0,0,0h61.5
	C93,84.4,93.4,84,93.4,83.5L93.4,83.5z"/>
</svg>
