<svg xmlns="http://www.w3.org/2000/svg" width="100" height="100" viewBox="0 0 100 100"><defs><style>.a{fill:#e0ff12;}</style></defs><title>Zeichenfläche 1 Kopie 3</title><path class="a" d="M47.75,46h0Zm-9,0Zm23.8,9h1.23q1,0,1.42,0a10.92,10.92,0,0,0,1.12-.13,3.72,3.72,0,0,0,1.27-.41,4.73,4.73,0,0,0,1-.79,4.47,4.47,0,0,0,0-6.34,4.77,4.77,0,0,0-1-.79,3.79,3.79,0,0,0-1.27-.41c-.5-.08-.87-.12-1.12-.13s-.73,0-1.42,0l-1.22,0H38.75l-1.22,0q-1,0-1.42,0c-.25,0-.63.06-1.12.13a3.79,3.79,0,0,0-1.27.41,4.77,4.77,0,0,0-1,.79,4.47,4.47,0,0,0,0,6.34,4.73,4.73,0,0,0,1,.79,3.72,3.72,0,0,0,1.27.41,10.94,10.94,0,0,0,1.12.13q.38,0,1.42,0l1.24,0H62.57ZM37.43,58.41a4.31,4.31,0,0,1-3.14,1.36H20.55a4.32,4.32,0,0,1-3.17-1.32,4.27,4.27,0,0,1-1.29-3.14l0-9.68a4.51,4.51,0,0,1,1.35-3.14,4.33,4.33,0,0,1,3.17-1.32l13.64,0a4.32,4.32,0,0,1,3.17,1.32,4,4,0,0,1,.45.55,1.45,1.45,0,0,0,1.2.6h6.59a1.51,1.51,0,0,0,1.44-2,13.25,13.25,0,0,0-3.38-5.49,12.9,12.9,0,0,0-9.45-4l-13.64,0a12.8,12.8,0,0,0-9.54,3.94,12.89,12.89,0,0,0-4,9.45l0,9.68A12.74,12.74,0,0,0,11,64.81a13,13,0,0,0,9.52,4H34.3a13,13,0,0,0,9.51-4,13.13,13.13,0,0,0,3.34-5.45,1.51,1.51,0,0,0-1.44-2H39a1.53,1.53,0,0,0-1.22.62A4.08,4.08,0,0,1,37.43,58.41ZM90.27,36.19a13,13,0,0,0-9.52-4L67,32.25a13,13,0,0,0-9.51,4,13.12,13.12,0,0,0-3.35,5.49,1.5,1.5,0,0,0,1.43,1.94h6.66A1.51,1.51,0,0,0,63.46,43a4,4,0,0,1,.4-.47A4.32,4.32,0,0,1,67,41.24l13.74,0a4.33,4.33,0,0,1,3.17,1.32,4.27,4.27,0,0,1,1.29,3.14l0,9.68a4.5,4.5,0,0,1-1.38,3.11,4.3,4.3,0,0,1-3.14,1.36l-13.64,0a4.32,4.32,0,0,1-3.17-1.32,3.9,3.9,0,0,1-.4-.48,1.51,1.51,0,0,0-1.22-.64H55.62a1.5,1.5,0,0,0-1.43,2,13.25,13.25,0,0,0,3.38,5.48,12.89,12.89,0,0,0,9.45,4l13.64,0A13.47,13.47,0,0,0,94.16,55.37l0-9.68A12.74,12.74,0,0,0,90.27,36.19ZM38.75,46h0Z"/></svg>