<svg xmlns="http://www.w3.org/2000/svg" width="100" height="100" viewBox="0 0 100 100"><defs><style>.a{fill:#e0ff12;}</style></defs><title>Zeichenfläche 1 Kopie 3</title><path class="a" d="M54.51,77.19H35.7v-2.7q.85-.5,1.78-.92a15.61,15.61,0,0,1,2.13-.78V58.41q0-6.12-1.17-9a4.48,4.48,0,0,0-4.58-2.88,6.62,6.62,0,0,0-4.83,2A11.25,11.25,0,0,0,26.19,53V72.79a15.92,15.92,0,0,1,2,.64,9.13,9.13,0,0,1,1.88,1.07v2.7H11.28v-2.7A19.76,19.76,0,0,1,16,72.78V29.63l-5.4-.57v-2.7a22.62,22.62,0,0,1,2.73-.85q1.67-.43,3.51-.75t3.69-.57q1.85-.25,3.27-.39h2.41V48.87h.07a12.83,12.83,0,0,1,1.92-3.09,14.7,14.7,0,0,1,2.73-2.56,13.32,13.32,0,0,1,3.3-1.74A11,11,0,0,1,38,40.85a17.53,17.53,0,0,1,5.08.68,7.86,7.86,0,0,1,3.73,2.38A11.43,11.43,0,0,1,49,48.49a28.47,28.47,0,0,1,.78,7.29v17q1.21.28,2.41.64a8.31,8.31,0,0,1,2.27,1.07Z"/><path class="a" d="M65.37,43.26H63q-.43-1.06-1-2.48t-1.1-3q-.57-1.56-1.07-3.09t-.78-2.8a22.79,22.79,0,0,1,6.35-3.69,25.17,25.17,0,0,1,9.41-1.56,20.48,20.48,0,0,1,6.74,1,13.1,13.1,0,0,1,4.72,2.77A10.93,10.93,0,0,1,89,34.53a14.11,14.11,0,0,1,.89,5,17.7,17.7,0,0,1-2,8.2A36.76,36.76,0,0,1,83,55a59.89,59.89,0,0,1-6.25,6.25l-6,5.22L67.08,69v.28l4.33-.43H83.62l3.48-8h2.41q.21,1.7.46,4t.46,4.58q.21,2.31.35,4.4t.14,3.37H58.42V72.65q1.84-1.63,4.19-3.8t4.76-4.76q2.41-2.59,4.76-5.5a56.45,56.45,0,0,0,4.19-5.93,32.48,32.48,0,0,0,2.95-6.14,18.31,18.31,0,0,0,1.1-6.1,9.44,9.44,0,0,0-2.09-6.35,7.37,7.37,0,0,0-5.93-2.45,15,15,0,0,0-2.17.14,16.38,16.38,0,0,0-2.17.5Z"/></svg>