<svg xmlns="http://www.w3.org/2000/svg" width="100" height="100" viewBox="0 0 100 100"><defs><style>.a{fill:#203143;}</style></defs><title>Zeichenfläche 1 Kopie 4</title><path class="a" d="M56.38,77.19H37.56v-2.7q.85-.5,1.78-.92a15.65,15.65,0,0,1,2.13-.78V58.41q0-6.12-1.17-9a4.48,4.48,0,0,0-4.58-2.88,6.62,6.62,0,0,0-4.83,2A11.24,11.24,0,0,0,28.05,53V72.79a15.82,15.82,0,0,1,2,.64A9.08,9.08,0,0,1,32,74.49v2.7H13.15v-2.7a19.76,19.76,0,0,1,4.68-1.71V29.63l-5.39-.57v-2.7a22.57,22.57,0,0,1,2.73-.85q1.67-.43,3.51-.75t3.69-.57q1.84-.25,3.26-.39h2.41V48.87h.07A12.86,12.86,0,0,1,30,45.78a14.76,14.76,0,0,1,2.73-2.56,13.34,13.34,0,0,1,3.3-1.74,11,11,0,0,1,3.76-.64,17.52,17.52,0,0,1,5.08.68,7.86,7.86,0,0,1,3.73,2.38,11.43,11.43,0,0,1,2.27,4.59,28.43,28.43,0,0,1,.78,7.29v17q1.21.28,2.41.64a8.32,8.32,0,0,1,2.27,1.07Z"/><path class="a" d="M85,77.19H60.42V74.14q1.77-.78,3.58-1.38t3.66-1V39.14L67.95,35a19.93,19.93,0,0,1-4.12.85,33.63,33.63,0,0,1-4.4.14l-.35-2.63a80.18,80.18,0,0,0,8.2-2.7,51.67,51.67,0,0,0,8.2-4h2.41V71.73q1.77.43,3.55,1T85,74.14Z"/></svg>