<svg xmlns="http://www.w3.org/2000/svg" width="100" height="100" viewBox="0 0 100 100"><defs><style>.a{fill:#d2d9df;}</style></defs><title>Zeichenfläche 1 Kopie 6</title><path class="a" d="M53.09,76.77H34.28v-2.7q.85-.5,1.77-.92a15.57,15.57,0,0,1,2.13-.78V58q0-6.12-1.17-9a4.48,4.48,0,0,0-4.58-2.88,6.62,6.62,0,0,0-4.83,2,11.25,11.25,0,0,0-2.84,4.52V72.36a15.92,15.92,0,0,1,2,.64,9.13,9.13,0,0,1,1.88,1.07v2.7H9.86v-2.7a19.76,19.76,0,0,1,4.69-1.71V29.21l-5.4-.57v-2.7a22.62,22.62,0,0,1,2.73-.85q1.67-.43,3.51-.75t3.69-.57q1.85-.25,3.27-.39h2.41V48.44h.07a12.83,12.83,0,0,1,1.92-3.09,14.7,14.7,0,0,1,2.73-2.56,13.34,13.34,0,0,1,3.3-1.74,11,11,0,0,1,3.76-.64,17.52,17.52,0,0,1,5.08.68,7.85,7.85,0,0,1,3.73,2.38,11.42,11.42,0,0,1,2.27,4.59,28.47,28.47,0,0,1,.78,7.29v17q1.21.28,2.41.64a8.29,8.29,0,0,1,2.27,1.07ZM72.18,73a7.34,7.34,0,0,0,3.19-.75,9.17,9.17,0,0,0,2.8-2.09,10.41,10.41,0,0,0,2-3.19,10.53,10.53,0,0,0,.75-4,9.72,9.72,0,0,0-.82-4.15A8.55,8.55,0,0,0,78,56a8.38,8.38,0,0,0-3-1.67,11.35,11.35,0,0,0-3.41-.53H67.43V50.93L78.08,37l2.41-2.48v-.28l-3.83.43H65.94l-2.77,7.24H60.75q-.36-1.49-.75-3.55t-.71-4.12q-.32-2.06-.5-4t-.18-3.19h31v3.48l-12.28,15-3.05,3.12v.14l2.41-.5a17.61,17.61,0,0,1,6,1.24,12.72,12.72,0,0,1,7.24,7.35,15.08,15.08,0,0,1,1,5.47,13.28,13.28,0,0,1-1.53,6.39,15.12,15.12,0,0,1-4.08,4.83,18.15,18.15,0,0,1-6,3,24.69,24.69,0,0,1-7.17,1,29.37,29.37,0,0,1-8.27-1.21,20.34,20.34,0,0,1-3.41-1.35,12.86,12.86,0,0,1-2.59-1.7L60.47,66h2.06q.43.5,1.17,1.31L65.26,69q.81.92,1.6,1.85t1.35,1.56q.71.14,1.6.35A10.55,10.55,0,0,0,72.18,73Z"/></svg>