<?xml version="1.0" encoding="utf-8"?>
<!-- Generator: Adobe Illustrator 21.0.0, SVG Export Plug-In . SVG Version: 6.00 Build 0)  -->
<svg version="1.1" id="Ebene_1" xmlns="http://www.w3.org/2000/svg" xmlns:xlink="http://www.w3.org/1999/xlink" x="0px" y="0px"
	 viewBox="0 0 100 100" style="enable-background:new 0 0 100 100;" xml:space="preserve">
<style type="text/css">
	.st0{fill:#D2D9DF;}
	.st1{fill:#54637A;}
</style>
<title>Zeichenfläche 1 Kopie</title>
<path class="st0" d="M21.3,77.1c0.1-0.6,0.4-1.1,0.7-1.6l36.7-63.8l3.9,2.3l9.6,5.6l3.8,2.2L39.3,85.6c-0.2,0.5-0.6,1-1.1,1.3l-6,5
	l-4.2-2.3l-4-2.2l-4.1-2.3L21.3,77.1z"/>
<path class="st1" d="M19.9,85.1l4.1,2.3l0,0l4,2.2l0,0l4.2,2.3l-8.7,7.2c-0.6,0.5-1.4,0.8-2.2,0.9c-1.9,0-3.4-1.6-3.4-3.5
	c0-0.2,0-0.3,0-0.5L19.9,85.1z"/>
<path class="st1" d="M72.1,19.5L62.6,14l0,0l-3.9-2.3l5.5-9.5C65,0.8,66.5,0,68.2,0c0.8,0,1.6,0.2,2.2,0.7l9.6,5.6
	c1.4,0.8,2.2,2.2,2.2,3.8c0,0.8-0.2,1.6-0.7,2.2L76,21.8L72.1,19.5L72.1,19.5z"/>
</svg>
