<?xml version="1.0" encoding="utf-8"?>
<!-- Generator: Adobe Illustrator 21.1.0, SVG Export Plug-In . SVG Version: 6.00 Build 0)  -->
<svg version="1.1" id="Ebene_1" xmlns="http://www.w3.org/2000/svg" xmlns:xlink="http://www.w3.org/1999/xlink" x="0px" y="0px"
	 viewBox="0 0 100 100" style="enable-background:new 0 0 100 100;" xml:space="preserve">
<style type="text/css">
	.st0{fill:#D2D9DF;}
</style>
<title>Zeichenfläche 1 Kopie 6</title>
<title>Zeichenfläche 1 Kopie 8</title>
<path class="st0" d="M20.4,27.6h-8.5v-0.9c0.5-0.2,1-0.4,1.5-0.6c0.5-0.2,1-0.3,1.5-0.4V11.5L15,9.8c-0.5,0.2-1.1,0.4-1.7,0.5
	c-0.6,0.1-1.2,0.1-1.8,0.1l-0.1-0.7c0.9-0.3,1.9-0.7,2.8-1.1c0.9-0.4,1.8-1,2.7-1.6h0.7v18.8c0.5,0.1,1,0.3,1.5,0.4
	c0.5,0.2,1,0.4,1.5,0.6L20.4,27.6z M12.3,43.3h-0.7c-0.2-0.6-0.4-1.2-0.7-2c-0.2-0.7-0.4-1.5-0.6-2.1c0.7-0.6,1.6-1.1,2.5-1.4
	c1-0.3,2-0.5,3.1-0.5c0.9,0,1.7,0.1,2.5,0.4c0.6,0.2,1.2,0.6,1.7,1.1c0.4,0.5,0.8,1,1,1.6c0.2,0.6,0.3,1.3,0.3,1.9
	c0,1.2-0.3,2.3-0.8,3.3c-0.5,1.2-1.2,2.3-1.9,3.3c-0.7,1.1-1.5,2.1-2.4,3c-0.9,0.9-1.7,1.8-2.4,2.5l-1.2,1.1v0.1l1.6-0.2h5l1.4-3.2
	h0.7c0,0.4,0.1,0.9,0.1,1.4c0,0.5,0.1,1,0.1,1.5c0,0.5,0.1,1,0.1,1.5c0,0.5,0,0.9,0,1.2h-12V57l1.6-1.6c0.6-0.6,1.2-1.3,1.9-2.1
	c0.7-0.8,1.3-1.6,2-2.5c0.6-0.8,1.2-1.7,1.7-2.7c0.5-0.9,0.9-1.8,1.2-2.7c0.3-0.8,0.5-1.7,0.5-2.6c0-0.5-0.1-1.1-0.2-1.6
	c-0.1-0.5-0.4-0.9-0.7-1.3c-0.6-0.8-1.5-1.2-2.5-1.2c-0.4,0-0.7,0-1.1,0.1c-0.3,0.1-0.7,0.2-1,0.3L12.3,43.3z M15.4,86.2
	c0.5,0,1-0.1,1.5-0.4c0.5-0.2,0.9-0.6,1.2-1c0.4-0.4,0.6-0.9,0.8-1.4c0.2-0.5,0.3-1.1,0.3-1.7c0-0.6-0.1-1.3-0.3-1.9
	c-0.2-0.5-0.5-1-0.9-1.3c-0.4-0.4-0.8-0.6-1.3-0.8c-0.5-0.2-1.1-0.3-1.7-0.3h-1.9v-0.8l4.9-6.5l1-1v-0.1l-1.6,0.2h-4.9l-1.1,3h-0.7
	c-0.1-0.4-0.1-0.8-0.2-1.3c-0.1-0.5-0.1-0.9-0.2-1.4c-0.1-0.5-0.1-0.9-0.1-1.3c0-0.4-0.1-0.8-0.1-1.2h11.3v0.9l-4.8,6.5l-1.2,1.3
	v0.1l1-0.2c0.8,0,1.7,0.2,2.4,0.5c0.7,0.3,1.3,0.7,1.8,1.2c0.5,0.5,0.9,1.1,1.1,1.8c0.3,0.7,0.4,1.5,0.4,2.2c0,0.9-0.2,1.8-0.6,2.6
	c-0.4,0.8-0.9,1.4-1.6,2c-0.7,0.6-1.4,1-2.2,1.3c-0.9,0.3-1.8,0.5-2.7,0.5c-0.5,0-1,0-1.4-0.1c-0.5-0.1-1-0.2-1.5-0.3
	c-0.5-0.1-0.9-0.3-1.3-0.5c-0.4-0.2-0.7-0.4-1.1-0.6l0.8-2.6h0.6c0.1,0.1,0.3,0.3,0.5,0.5l0.6,0.7c0.2,0.2,0.4,0.5,0.7,0.7l0.5,0.6
	l0.8,0.1C14.6,86.2,15,86.2,15.4,86.2z M93.6,22.3H32.1c-0.5,0-0.9-0.4-0.9-0.9v0v-8.2c0-0.5,0.4-0.9,0.9-0.9l0,0h61.5
	c0.5,0,0.9,0.4,0.9,0.9v0v8.2C94.5,21.9,94.1,22.3,93.6,22.3C93.6,22.3,93.6,22.3,93.6,22.3z M94.7,51.3V43c0-0.5-0.4-0.9-0.9-0.9
	l0,0H32.1c-0.5,0-0.9,0.4-0.9,0.9v8.2c0,0.5,0.4,0.9,0.9,0.9h61.7C94.3,52.1,94.7,51.7,94.7,51.3L94.7,51.3z M94.5,81.1v-8.2
	c0-0.5-0.4-0.9-0.9-0.9c0,0,0,0,0,0H32.1c-0.5,0-0.9,0.4-0.9,0.9l0,0v8.2c0,0.5,0.4,0.9,0.9,0.9c0,0,0,0,0,0h61.5
	C94.1,82,94.5,81.6,94.5,81.1L94.5,81.1z"/>
</svg>
