<svg xmlns="http://www.w3.org/2000/svg" width="100" height="100" viewBox="0 0 100 100"><defs><style>.a{fill:#203143;}</style></defs><title>Zeichenfläche 1 Kopie 7</title><path class="a" d="M92.52,25.63H31a.87.87,0,0,1-.87-.87V16.54a.87.87,0,0,1,.87-.87H92.52a.87.87,0,0,1,.87.87v8.21A.87.87,0,0,1,92.52,25.63Zm1.08,29V46.39a.87.87,0,0,0-.87-.87H31a.87.87,0,0,0-.87.87v8.21a.87.87,0,0,0,.87.87H92.74A.87.87,0,0,0,93.61,54.61Zm-.22,29.85V76.24a.87.87,0,0,0-.87-.87H31a.87.87,0,0,0-.87.87v8.21a.87.87,0,0,0,.87.87H92.52A.87.87,0,0,0,93.39,84.46ZM15.07,12a8.68,8.68,0,1,0,8.68,8.68A8.68,8.68,0,0,0,15.07,12Zm0,29.85a8.68,8.68,0,1,0,8.68,8.68A8.68,8.68,0,0,0,15.07,41.82Zm0,29.85a8.68,8.68,0,1,0,8.68,8.68A8.68,8.68,0,0,0,15.07,71.67Z"/></svg>