<svg xmlns="http://www.w3.org/2000/svg" width="100" height="100" viewBox="0 0 100 100"><defs><style>.a{fill:#d2d9df;}</style></defs><title>Zeichenfläche 1 Kopie</title><path class="a" d="M74.82,36.18Q77.26,33,82,33q9.55,0,9.55,12.79T82,58.5q-4.79,0-7.2-3.21t-2.41-9.55q0-6.34,2.43-9.56M95.38,31.3q-4.62-5-13.35-5t-13.39,5Q64,36.25,64,45.69t4.66,14.49q4.66,5,13.36,5h.59l6.56,8a1.24,1.24,0,0,0,1,.46H97a1.24,1.24,0,0,0,.93-2.08l-6.18-6.9A1.23,1.23,0,0,1,92,62.86a14.39,14.39,0,0,0,5.62-5.93A23.89,23.89,0,0,0,100,45.74q0-9.43-4.62-14.44M39.42,49a1.25,1.25,0,0,1-1.19-1.62q3.59-11.65,4.39-14.76c.14.62.37,1.47.69,2.54s1.56,5.07,3.78,12.23A1.25,1.25,0,0,1,45.9,49ZM60.31,63.06,47.78,27.55a1.24,1.24,0,0,0-1.17-.83h-8a1.24,1.24,0,0,0-1.17.83L24.91,63.06a1.24,1.24,0,0,0,1.17,1.66h6a1.24,1.24,0,0,0,1.19-.88l2.21-7.24a1.24,1.24,0,0,1,1.19-.88H48.58a1.24,1.24,0,0,1,1.19.88L52,63.83a1.24,1.24,0,0,0,1.19.88h6A1.24,1.24,0,0,0,60.31,63.06ZM9.14,49.76H19.49a1.24,1.24,0,0,0,1.24-1.24V44.45a1.24,1.24,0,0,0-1.24-1.24H9.14A1.24,1.24,0,0,1,7.89,42V34.69a1.24,1.24,0,0,1,1.24-1.24h11.3a1.24,1.24,0,0,0,1.24-1.24V28.12a1.24,1.24,0,0,0-1.24-1.24H1.24A1.24,1.24,0,0,0,0,28.12V63.47a1.24,1.24,0,0,0,1.24,1.24h5.4a1.24,1.24,0,0,0,1.24-1.24V51A1.24,1.24,0,0,1,9.14,49.76Z"/></svg>