<svg xmlns="http://www.w3.org/2000/svg" width="100" height="100" viewBox="0 0 100 100"><defs><style>.a{fill:#54637a;}.b{fill:#203143;}</style></defs><title>Zeichenfläche 1 Kopie 2</title><path class="a" d="M91.52,50.66c-2.32,3.13-7.17,5.44-12.22,5.43a17.32,17.32,0,0,1-6.51-1.29,13.27,13.27,0,0,1,3,8.24v8a4.43,4.43,0,0,1-.14,1.08c1.15,0,2.36.07,3.64.07,9.23,0,15-1.18,17.29-1.9S100,68.74,100,66.87V60.45C100,53.51,92.7,49.08,91.52,50.66Z"/><circle class="a" cx="79.3" cy="39.56" r="11.74"/><path class="a" d="M24.16,63a13.27,13.27,0,0,1,3-8.21,17.32,17.32,0,0,1-6.44,1.26c-5,0-9.9-2.3-12.22-5.43C7.31,49.08,0,53.51,0,60.45v6.42c0,1.88,1.1,2.69,3.41,3.41s8.06,1.9,17.29,1.9c1.27,0,2.46,0,3.59-.06A4.43,4.43,0,0,1,24.16,71Z"/><circle class="a" cx="20.71" cy="39.56" r="11.74"/><path class="b" d="M72.79,54.79a12,12,0,0,0-5.89-4.28c-.77-.17-1.38-.09-1.68.3a15.43,15.43,0,0,1-5,4.15,21.34,21.34,0,0,1-20.41,0,15.48,15.48,0,0,1-5.07-4.19c-.28-.38-.86-.48-1.6-.33a11.9,11.9,0,0,0-6,4.33,13.27,13.27,0,0,0-3,8.21v8a4.43,4.43,0,0,0,.14,1.08c.39,1.59,1.73,2.43,4.12,3.17,2.89.9,10,2.37,21.56,2.37s18.68-1.47,21.56-2.37c2.39-.74,3.73-1.58,4.12-3.18A4.43,4.43,0,0,0,75.79,71V63A13.27,13.27,0,0,0,72.79,54.79Z"/><circle class="b" cx="49.98" cy="36.98" r="14.63"/></svg>