<svg xmlns="http://www.w3.org/2000/svg" width="100" height="100" viewBox="0 0 100 100"><defs><style>.a{fill:#d2d9df;}</style></defs><title>Zeichenfläche 1 Kopie</title><path class="a" d="M48,65.29a12.09,12.09,0,0,0-9.21,3.84,14.17,14.17,0,0,0,0,18.77A12.09,12.09,0,0,0,48,91.75a12.09,12.09,0,0,0,9.21-3.84,14.16,14.16,0,0,0,0-18.77A12.06,12.06,0,0,0,48,65.29Z"/><path class="a" d="M71.89,20a17.87,17.87,0,0,0-5.54-6.78,24,24,0,0,0-8.15-3.8,38.86,38.86,0,0,0-9.77-1.2,26.64,26.64,0,0,0-12.81,3.17c-2.55,1.39-6.39,4.87-8.71,7.06a2.57,2.57,0,0,0,0,3.76l8.77,8a2.57,2.57,0,0,0,3.38.09c1.15-1,2.59-2.13,3.32-2.61A8,8,0,0,1,47,26.5a7,7,0,0,1,4.05,1.16c1,.71,1.49,1.91,1.49,3.68a5.49,5.49,0,0,1-1.06,3.12,36.66,36.66,0,0,1-2.91,3.71c-1.16,1.33-2.43,2.73-3.8,4.21a31.09,31.09,0,0,0-3.76,5,23.1,23.1,0,0,0-2.52,6.08,25.38,25.38,0,0,0-.25,5.72,2.58,2.58,0,0,0,2.57,2.49H55.49a2.58,2.58,0,0,0,2.57-2.49,13.83,13.83,0,0,1,.53-3.88,21.15,21.15,0,0,1,2.74-4.58,44.36,44.36,0,0,1,3.84-4.24,45.06,45.06,0,0,0,4.09-4.57,28,28,0,0,0,3.23-5.3,15.73,15.73,0,0,0,1.39-6.72A22.82,22.82,0,0,0,71.89,20Z"/></svg>