<svg xmlns="http://www.w3.org/2000/svg" width="100" height="100" viewBox="0 0 100 100"><defs><style>.a{fill:#e0ff12;}</style></defs><title>Zeichenfläche 1 Kopie 3</title><path class="a" d="M78.33,28.45a28.45,28.45,0,1,0-56.9,0,27.89,27.89,0,0,0,10.2,21.78,12.11,12.11,0,0,1,4.51,9.42v5.83A1.69,1.69,0,0,0,38,66.95l24.09-3A1.69,1.69,0,0,0,63.6,62l0-2.38a12.11,12.11,0,0,1,4.51-9.42,27.89,27.89,0,0,0,10.2-21.78"/><rect class="a" x="36.15" y="70.73" width="27.47" height="5.1" rx="1.15" ry="1.15" transform="translate(-8.74 6.79) rotate(-7.16)"/><rect class="a" x="36.15" y="81" width="27.47" height="5.1" rx="1.15" ry="1.15" transform="translate(-10.02 6.87) rotate(-7.16)"/><path class="a" d="M41.78,92.23a1.71,1.71,0,0,0-1.71,1.71V94s0,0,0,0A5.78,5.78,0,0,0,46,99.87h7.85a5.78,5.78,0,0,0,5.88-5.8s0,0,0,0V91.68a1.71,1.71,0,0,0-1.91-1.48Z"/></svg>