<svg xmlns="http://www.w3.org/2000/svg" width="100" height="100" viewBox="0 0 100 100"><defs><style>.a{fill:#3b4357;}</style></defs><title>Zeichenfläche 1 Kopie 2</title><path class="a" d="M78.45,28.45a28.45,28.45,0,1,0-56.9,0,27.89,27.89,0,0,0,10.2,21.78,12.11,12.11,0,0,1,4.51,9.42v5.83a1.69,1.69,0,0,0,1.89,1.47l24.09-3A1.69,1.69,0,0,0,63.72,62l0-2.38a12.11,12.11,0,0,1,4.51-9.42,27.89,27.89,0,0,0,10.2-21.78"/><rect class="a" x="36.27" y="70.73" width="27.47" height="5.1" rx="1.15" ry="1.15" transform="translate(-8.74 6.8) rotate(-7.16)"/><rect class="a" x="36.27" y="81" width="27.47" height="5.1" rx="1.15" ry="1.15" transform="translate(-10.02 6.88) rotate(-7.16)"/><path class="a" d="M41.9,92.23a1.71,1.71,0,0,0-1.71,1.71V94s0,0,0,0a5.78,5.78,0,0,0,5.88,5.8h7.85a5.78,5.78,0,0,0,5.88-5.8s0,0,0,0V91.68a1.71,1.71,0,0,0-1.91-1.48Z"/></svg>