<svg xmlns="http://www.w3.org/2000/svg" width="500" height="216" viewBox="0 0 2500 1080" style="fill: white"><title>liqula</title><path d="M70.3,15.17A15.17,15.17,0,1,1,55.13,0,15.17,15.17,0,0,1,70.3,15.17ZM193.16,99.4l.1.28V216H168.69V144.68a53.62,53.62,0,1,1,15.78-74.25A53.44,53.44,0,0,1,193.16,99.4Zm-24.47.28c0-.61-.05-1.2-.09-1.8a29.24,29.24,0,1,0-29.17,31.06c15.52,0,28.32-13.07,29.26-28.36ZM42.85,150.85H67.42V45.94H42.85ZM0,150.85H24.57V0H0Zm463-49.37c0-.6.09-1.19.09-1.8s-.05-1.2-.09-1.8Zm37,49.8c-3,1.28-7.26,2.14-13,2.14-10.47,0-16.94-4.07-20.48-11.19-1.13.87-2.25,1.77-3.45,2.55a53.79,53.79,0,1,1,0-90.1v0a54.07,54.07,0,0,1,15.87,15.74v0a53.44,53.44,0,0,1,8.7,29.26v25.53c0,6,2.78,8.12,5.34,8.12a14.78,14.78,0,0,0,3.85-.43Zm-36.87-51.6c0-.61-.05-1.2-.09-1.8a29.26,29.26,0,1,0,0,3.6C463.07,100.88,463.13,100.29,463.13,99.68ZM337.28,150.85h24.57V0H337.28ZM294.53,54.74V99.68c0,.61-.05,1.2-.09,1.8A29.24,29.24,0,0,1,236,99.68V45.94H211.53V99.68a53.74,53.74,0,0,0,107.48,0V45.94H294.53Zm-.09,43.14v3.6c0-.6.09-1.19.09-1.8S294.47,98.48,294.44,97.88Z"/></svg>
