<?xml version="1.0" encoding="utf-8"?>
<!-- Generator: Adobe Illustrator 21.0.0, SVG Export Plug-In . SVG Version: 6.00 Build 0)  -->
<svg version="1.1" id="Ebene_1" xmlns="http://www.w3.org/2000/svg" xmlns:xlink="http://www.w3.org/1999/xlink" x="0px" y="0px"
	 viewBox="0 0 100 100" style="enable-background:new 0 0 100 100;" xml:space="preserve">
<style type="text/css">
	.st0{fill:#203143;}
	.st1{fill:#54637A;}
	.st2{fill:#E0FF12;}
</style>
<title>Zeichenfläche 1 Kopie 2</title>
<path class="st0" d="M14.6,77.1c0.1-0.6,0.4-1.1,0.7-1.6L52,11.7l3.9,2.3l9.6,5.6l3.8,2.2L32.6,85.6c-0.2,0.5-0.6,1-1.1,1.3l-6,5
	l-4.2-2.3l-4-2.2l-4.1-2.3L14.6,77.1z"/>
<path class="st1" d="M13.2,85.1l4.1,2.3l0,0l4,2.2l0,0l4.2,2.3l-8.7,7.2c-0.6,0.5-1.4,0.8-2.2,0.9c-1.9,0-3.4-1.6-3.4-3.5
	c0-0.2,0-0.3,0-0.5L13.2,85.1z"/>
<path class="st1" d="M65.5,19.5L55.9,14l0,0L52,11.7l5.5-9.5c0.9-1.4,2.4-2.2,4-2.2c0.8,0,1.6,0.2,2.2,0.7l9.6,5.6
	c1.4,0.8,2.2,2.2,2.2,3.8c0,0.8-0.2,1.6-0.7,2.2l-5.5,9.6C69.3,21.8,65.5,19.5,65.5,19.5z"/>
<circle class="st1" cx="63" cy="66" r="25.9"/>
<path class="st2" d="M80.2,72.3H68.8v11.4c0,0.6-0.5,1.1-1.1,1.1H57.3c-0.6,0-1.1-0.5-1.1-1.1V72.3H44.8c-0.6,0-1.1-0.5-1.1-1.1
	V60.8c0-0.6,0.5-1.1,1.1-1.1h11.4V48.3c0-0.6,0.5-1.1,1.1-1.1h10.4c0.6,0,1.1,0.5,1.1,1.1v11.4h11.4c0.6,0,1.1,0.5,1.1,1.1v10.4
	C81.3,71.8,80.8,72.3,80.2,72.3z"/>
</svg>
