<svg xmlns="http://www.w3.org/2000/svg" width="100" height="100" viewBox="0 0 100 100"><defs><style>.a{fill:#e0ff12;}</style></defs><title>Zeichenfläche 1 Kopie 3</title><path class="a" d="M91.59,44.15,68.2,20.75a5.65,5.65,0,0,0-2.92-1.55l-.31,0c-.18,0-.36-.05-.54-.06v0H11.74a5.72,5.72,0,0,0-2.92.81L8.65,20a5.82,5.82,0,0,0-.46.36c-.14.11-.28.2-.42.32l.05,0h0l0,0-.09.08a5.74,5.74,0,0,0-.78,7.1,6.07,6.07,0,0,0,.78,1L11.79,33,24.12,45.29a8.25,8.25,0,0,1,0,9.41L11.79,67,7.67,71.15a5.91,5.91,0,0,0-.78,1,5.74,5.74,0,0,0,.78,7.1l.09.08,0,0h0l-.05,0c.13.12.28.22.42.32a5.82,5.82,0,0,0,.46.36l.17.09a5.68,5.68,0,0,0,2.92.81H64.43v0l.54-.06.31,0a5.65,5.65,0,0,0,2.92-1.55L91.59,55.86a8.31,8.31,0,0,0,0-11.71"/></svg>