<svg xmlns="http://www.w3.org/2000/svg" viewBox="0 0 100 100"><defs><style>.a{fill:#203143;}</style></defs><title>Zeichenfläche 1 Kopie 2</title><path class="a" d="M61.62,9.67H42.29A38.5,38.5,0,0,0,3.9,48h0A38.07,38.07,0,0,0,10,68.74L1.15,83.66A3.9,3.9,0,0,0,6.66,89.2l14.27-9.31a38.1,38.1,0,0,0,21.36,6.54H61.62A38.5,38.5,0,0,0,100,48h0A38.5,38.5,0,0,0,61.62,9.67Zm-2.69,6.28-.47,12.5-2,28.76h-9l-2-28.76L45,15.95Zm-7,64.1A8.33,8.33,0,0,1,43.6,71.4c0-5,3.57-8.74,8.37-8.74s8.37,3.76,8.37,8.74A8.33,8.33,0,0,1,52,80.05Z"/></svg>