<svg xmlns="http://www.w3.org/2000/svg" viewBox="0 0 100 100"><defs><style>.a{fill:none;}.b{fill:#d2d9df;}</style></defs><title>Zeichenfläche 1 Kopie</title><path class="a" d="M57.74,61.24H41a2,2,0,0,0-2,2v7.39H59.77V63.27A2,2,0,0,0,57.74,61.24Z"/><path class="b" d="M87.26,33h-2.1V16.07A16.08,16.08,0,0,0,69.09,0H30.91A16.09,16.09,0,0,0,14.85,16.07V33h-2.1A10.35,10.35,0,0,0,2.39,43.32V89.65A10.35,10.35,0,0,0,12.74,100H87.26A10.35,10.35,0,0,0,97.61,89.65V43.32A10.35,10.35,0,0,0,87.26,33ZM55.71,68.38V84.05a5.71,5.71,0,0,1-11.43,0V68.38a13.81,13.81,0,1,1,11.43,0ZM73.73,33H26.27V16.07a4.65,4.65,0,0,1,4.64-4.64H69.09a4.65,4.65,0,0,1,4.64,4.64Z"/></svg>