<svg xmlns="http://www.w3.org/2000/svg" width="100" height="100" viewBox="0 0 100 100"><defs><style>.a{fill:#54637a;}.b{fill:#203143;}.c{fill:#3b4357;}</style></defs><title>Zeichenfläche 1 Kopie 2</title><path class="a" d="M91.88,44.86,71.36,24.35A5,5,0,0,0,68.81,23l-.27,0a5.18,5.18,0,0,0-.58-.07h0a5,5,0,0,0-3.53,1.37h0l-.08.07a5.06,5.06,0,0,0,0,7.1L78.7,45.87a7.23,7.23,0,0,1,0,8.25L64.28,68.55a5,5,0,0,0,0,7.1l.08.07h0a5,5,0,0,0,3.53,1.37h0a5.17,5.17,0,0,0,.59-.07l.27,0a4.94,4.94,0,0,0,2.56-1.36L91.88,55.14a7.28,7.28,0,0,0,0-10.27Z"/><path class="b" d="M14.55,75.65,35.07,55.14a7.28,7.28,0,0,0,0-10.27L14.55,24.35A5,5,0,0,0,12,23l-.27,0a5.19,5.19,0,0,0-.58-.07H11a5,5,0,0,0-2.57.71l-.15.08c-.14.09-.27.21-.4.31s-.25.17-.37.28l0,0h0l-.08.07a5.06,5.06,0,0,0,0,7.1L21.89,45.87a7.23,7.23,0,0,1,0,8.25L7.46,68.55a5,5,0,0,0,0,7.1l.08.07h0l0,0c.11.11.24.19.37.28s.26.22.4.31l.15.08a5,5,0,0,0,2.57.71h.11a5.17,5.17,0,0,0,.59-.07L12,77A5,5,0,0,0,14.55,75.65Z"/><path class="c" d="M43,75.65,63.47,55.14a7.28,7.28,0,0,0,0-10.27L43,24.35A5,5,0,0,0,40.4,23l-.27,0a5.18,5.18,0,0,0-.58-.07h0A5,5,0,0,0,36,24.27h0l-.08.07a5.06,5.06,0,0,0,0,7.1L50.29,45.87a7.23,7.23,0,0,1,0,8.25L35.87,68.55a5,5,0,0,0,0,7.1l.08.07h0a5,5,0,0,0,3.53,1.37h0a5.17,5.17,0,0,0,.59-.07l.27,0A4.94,4.94,0,0,0,43,75.65Z"/></svg>