<svg xmlns="http://www.w3.org/2000/svg" width="100" height="100" viewBox="0 0 100 100"><defs><style>.a{fill:#e0ff12;}</style></defs><title>Zeichenfläche 1 Kopie 3</title><path class="a" d="M94,50a7.23,7.23,0,0,1-2.12,5.14L71.36,75.65A4.94,4.94,0,0,1,68.81,77l-.27,0a5.16,5.16,0,0,1-.59.07h0a5,5,0,0,1-3.53-1.37l0,0-.08-.07a5.06,5.06,0,0,1,0-7.1L78.7,54.13a7.23,7.23,0,0,0,0-8.26L64.28,31.45a5,5,0,0,1,0-7.1l.08-.07h0a5,5,0,0,1,3.53-1.37h0a5.19,5.19,0,0,1,.58.07l.27,0a5,5,0,0,1,2.56,1.36L91.88,44.86A7.23,7.23,0,0,1,94,50ZM37.19,50a7.23,7.23,0,0,0-2.12-5.14L14.55,24.35A5,5,0,0,0,12,23l-.27,0a5.2,5.2,0,0,0-.58-.07H11a5,5,0,0,0-2.57.71l-.15.08c-.14.09-.27.21-.4.31s-.25.17-.37.28l0,0h0l-.08.07a5.06,5.06,0,0,0,0,7.1L21.89,45.87a7.23,7.23,0,0,1,0,8.26L7.46,68.55a5,5,0,0,0,0,7.1l.08.07,0,0h0l0,0c.11.11.24.19.37.28s.26.22.4.31l.15.08a5,5,0,0,0,2.57.71h.11a5.16,5.16,0,0,0,.59-.07L12,77a5,5,0,0,0,2.56-1.36L35.07,55.14A7.23,7.23,0,0,0,37.19,50Zm28.41,0a7.23,7.23,0,0,0-2.12-5.14L43,24.35A5,5,0,0,0,40.4,23l-.27,0a5.2,5.2,0,0,0-.58-.07h0A5,5,0,0,0,36,24.27h0l-.08.07a5.06,5.06,0,0,0,0,7.1L50.29,45.87a7.23,7.23,0,0,1,0,8.26L35.87,68.55a5,5,0,0,0,0,7.1l.08.07,0,0a5,5,0,0,0,3.53,1.37h0a5.15,5.15,0,0,0,.59-.07l.27,0A4.94,4.94,0,0,0,43,75.65L63.47,55.14A7.23,7.23,0,0,0,65.59,50Z"/></svg>