<svg xmlns="http://www.w3.org/2000/svg" viewBox="0 0 100 100"><defs><style>.a{fill:#e0ff12;}</style></defs><title>Zeichenfläche 1 Kopie 3</title><path class="a" d="M56.67,0A30.07,30.07,0,0,0,33.11,48.67l-3.33,5.56a3.75,3.75,0,0,0-.67,2.23,4.66,4.66,0,0,0,2.22,4L14.22,90a5.8,5.8,0,0,0-.89,3.34A6.55,6.55,0,0,0,20,100a6.83,6.83,0,0,0,5.78-3.55L42.89,67.11a3.6,3.6,0,0,0,2.22.45,4.31,4.31,0,0,0,3.78-2.23l3.33-5.56a28,28,0,0,0,4.45.23,30,30,0,1,0,0-60Zm18.8,30a18.8,18.8,0,1,1-18.8-18.8A18.83,18.83,0,0,1,75.47,30Z"/></svg>