<svg xmlns="http://www.w3.org/2000/svg" viewBox="0 0 100 100"><defs><style>.a{fill:#e0ff12;}.b{fill:#54637a;}</style></defs><title>Zeichenfläche 1 Kopie 3</title><path class="a" d="M78.57,34.81H21.92a3.6,3.6,0,0,0-3.6,3.6v58a3.61,3.61,0,0,0,3.6,3.6H78.57a3.6,3.6,0,0,0,3.6-3.6v-58A3.61,3.61,0,0,0,78.57,34.81Z"/><path class="b" d="M50.25,0c-.11,0-.22,0-.33,0a7.15,7.15,0,0,0-4.76,2.07L26.25,21a5.13,5.13,0,1,0,7.26,7.26L45.11,16.67V64.49a5.13,5.13,0,1,0,10.27,0V16.67L67,28.27A5.13,5.13,0,1,0,74.25,21L55.34,2.11A7.15,7.15,0,0,0,50.57,0C50.46,0,50.36,0,50.25,0Z"/></svg>