<svg xmlns="http://www.w3.org/2000/svg" viewBox="0 0 100 100"><defs><style>.a{fill:#d2d9df;}.b{fill:#54637a;}</style></defs><title>Zeichenfläche 1 Kopie</title><path class="a" d="M76.08,34.81H19.43a3.6,3.6,0,0,0-3.6,3.6v58a3.61,3.61,0,0,0,3.6,3.6H76.08a3.6,3.6,0,0,0,3.6-3.6v-58A3.61,3.61,0,0,0,76.08,34.81Z"/><path class="b" d="M47.75,0c-.11,0-.22,0-.33,0a7.15,7.15,0,0,0-4.76,2.07L23.75,21A5.13,5.13,0,1,0,31,28.27L42.62,16.67V64.49a5.13,5.13,0,0,0,10.27,0V16.67L64.49,28.27A5.13,5.13,0,1,0,71.75,21L52.84,2.11A7.15,7.15,0,0,0,48.07,0C48,0,47.86,0,47.75,0Z"/></svg>