<svg xmlns="http://www.w3.org/2000/svg" viewBox="0 0 100 100"><defs><style>.a{fill:#203143;}.b{fill:#54637a;}</style></defs><title>Zeichenfläche 1 Kopie 2</title><path class="a" d="M77.32,34.81H20.68a3.6,3.6,0,0,0-3.6,3.6v58a3.61,3.61,0,0,0,3.6,3.6H77.32a3.6,3.6,0,0,0,3.6-3.6v-58A3.61,3.61,0,0,0,77.32,34.81Z"/><path class="b" d="M49,0c-.11,0-.22,0-.33,0a7.15,7.15,0,0,0-4.76,2.07L25,21a5.13,5.13,0,1,0,7.26,7.26L43.87,16.67V64.49a5.13,5.13,0,0,0,10.27,0V16.67L65.74,28.27A5.13,5.13,0,1,0,73,21L54.09,2.11A7.15,7.15,0,0,0,49.32,0C49.21,0,49.11,0,49,0Z"/></svg>