<svg xmlns="http://www.w3.org/2000/svg" width="100" height="100" viewBox="0 0 100 100"><defs><style>.a{fill:#d2d9df;}</style></defs><title>Zeichenfläche 1 Kopie</title><path class="a" d="M87.57,93.79H11.34a4,4,0,0,1-3.93-3.21C7.36,90.33,7.33,89,7.33,89a4,4,0,0,1,4-4H87.57a4,4,0,0,1,3.93,3.21c.05.26.08,1.59.08,1.59A4,4,0,0,1,87.57,93.79Zm4-64.4s0-19.72-.08-20a4,4,0,0,0-3.93-3.21H11.34a4,4,0,0,0-4,4s0,19.72.08,20a4,4,0,0,0,3.93,3.21H87.57A4,4,0,0,0,91.58,29.39ZM29.36,38.8a4.56,4.56,0,0,0-3.22,7.78L44.79,65.24a6.6,6.6,0,0,0,9.33,0L72.78,46.58a4.56,4.56,0,0,0-3.29-7.78C68.34,38.82,30.52,38.8,29.36,38.8ZM45.34,85h0Z"/></svg>