<svg xmlns="http://www.w3.org/2000/svg" width="100" height="100" viewBox="0 0 100 100"><defs><style>.a{fill:#203143;}</style></defs><title>Zeichenfläche 1 Kopie 4</title><path class="a" d="M91.84,10.22s0,1.33-.08,1.59A4,4,0,0,1,87.83,15H11.6a4,4,0,0,1-4-4s0-1.33.08-1.59A4,4,0,0,1,11.6,6.21H87.83A4,4,0,0,1,91.84,10.22Zm-4,56.38H11.6A4,4,0,0,0,7.67,69.8c-.05.26-.08,20-.08,20a4,4,0,0,0,4,4H87.83a4,4,0,0,0,3.93-3.21c.05-.26.08-20,.08-20A4,4,0,0,0,87.83,66.6ZM69.74,61.2A4.56,4.56,0,0,0,73,53.42L54.38,34.77a6.6,6.6,0,0,0-9.33,0L26.39,53.42a4.56,4.56,0,0,0,3.22,7.78C30.78,61.2,68.6,61.18,69.74,61.2ZM45.6,15h0Z"/></svg>