<svg xmlns="http://www.w3.org/2000/svg" width="100" height="100" viewBox="0 0 100 100"><defs><style>.a{fill:#203143;}</style></defs><title>Zeichenfläche 1 Kopie 2</title><path class="a" d="M88.12,93.79H11.88A4,4,0,0,1,8,90.59C7.9,90.33,7.87,89,7.87,89a4,4,0,0,1,4-4H88.12A4,4,0,0,1,92,88.19c.05.26.08,1.59.08,1.59A4,4,0,0,1,88.12,93.79Zm4-64.4s0-19.72-.08-20a4,4,0,0,0-3.93-3.21H11.88a4,4,0,0,0-4,4s0,19.72.08,20a4,4,0,0,0,3.93,3.21H88.12A4,4,0,0,0,92.13,29.39ZM29.9,38.8a4.56,4.56,0,0,0-3.22,7.78L45.33,65.24a6.6,6.6,0,0,0,9.33,0L73.32,46.58A4.56,4.56,0,0,0,70,38.8C68.89,38.82,31.07,38.8,29.9,38.8ZM45.88,85h0Z"/></svg>