<svg xmlns="http://www.w3.org/2000/svg" width="100" height="100" viewBox="0 0 100 100"><defs><style>.a{fill:#d2d9df;}</style></defs><title>Zeichenfläche 1</title><path class="a" d="M92.63,10.22s0,1.33-.08,1.59A4,4,0,0,1,88.62,15H12.38a4,4,0,0,1-4-4s0-1.33.08-1.59a4,4,0,0,1,3.93-3.21H88.62A4,4,0,0,1,92.63,10.22Zm-4,56.38H12.38A4,4,0,0,0,8.45,69.8c-.05.26-.08,20-.08,20a4,4,0,0,0,4,4H88.62a4,4,0,0,0,3.93-3.21c.05-.26.08-20,.08-20A4,4,0,0,0,88.62,66.6ZM70.53,61.2a4.56,4.56,0,0,0,3.29-7.78L55.17,34.77a6.6,6.6,0,0,0-9.33,0L27.18,53.42A4.56,4.56,0,0,0,30.4,61.2C31.57,61.2,69.39,61.18,70.53,61.2ZM46.39,15h0Z"/></svg>