<svg xmlns="http://www.w3.org/2000/svg" width="100" height="100" viewBox="0 0 100 100"><defs><style>.a{fill:#e0ff12;}</style></defs><title>Zeichenfläche 1 Kopie 5</title><path class="a" d="M92.38,10.22s0,1.33-.08,1.59A4,4,0,0,1,88.37,15H12.14a4,4,0,0,1-4-4s0-1.33.08-1.59a4,4,0,0,1,3.93-3.21H88.37A4,4,0,0,1,92.38,10.22Zm-4,56.38H12.14A4,4,0,0,0,8.21,69.8c-.05.26-.08,20-.08,20a4,4,0,0,0,4,4H88.37a4,4,0,0,0,3.93-3.21c.05-.26.08-20,.08-20A4,4,0,0,0,88.37,66.6ZM70.29,61.2a4.56,4.56,0,0,0,3.29-7.78L54.92,34.77a6.6,6.6,0,0,0-9.33,0L26.94,53.42a4.56,4.56,0,0,0,3.22,7.78C31.33,61.2,69.14,61.18,70.29,61.2ZM46.15,15h0Z"/></svg>