<svg xmlns="http://www.w3.org/2000/svg" width="100" height="100" viewBox="0 0 100 100"><defs><style>.a{fill:#d2d9df;}.b{fill:#54637a;}.c{fill:#203143;}</style></defs><title>Zeichenfläche 1 Kopie</title><path class="a" d="M65.18,18.07V.13H17.62a3.46,3.46,0,0,0-3.45,3.45v93.1a3.46,3.46,0,0,0,3.45,3.45H83.13a3.46,3.46,0,0,0,3.45-3.45V21.52H68.63A3.46,3.46,0,0,1,65.18,18.07Z"/><path class="b" d="M65.18.13V18.07a3.46,3.46,0,0,0,3.45,3.45H86.58Z"/><path class="c" d="M74.68,73.05a3.92,3.92,0,0,0-.56-1.31L43,17.76l-3.31,1.92-8.08,4.7-3.24,1.88,31,53.93a2.74,2.74,0,0,0,.94,1.12l5.08,4.24,3.57-2,3.38-1.88,3.44-1.91Z"/><path class="b" d="M75.87,79.79,72.43,81.7h0L69,83.57h0l-3.57,2,7.32,6.11a3.35,3.35,0,0,0,1.88.75A2.92,2.92,0,0,0,77.5,89Z"/><path class="b" d="M31.65,24.38l8.08-4.7h0L43,17.76l-4.63-8A4,4,0,0,0,35,7.84a3.19,3.19,0,0,0-1.88.56l-8.08,4.7a3.63,3.63,0,0,0-1.88,3.2,3.17,3.17,0,0,0,.56,1.88l4.65,8.08,3.24-1.88Z"/></svg>