<svg xmlns="http://www.w3.org/2000/svg" width="100" height="100" viewBox="0 0 100 100"><defs><style>.a{fill:#203143;}</style></defs><title>Zeichenfläche 1 Kopie 2</title><path class="a" d="M6.87,93.16a5.59,5.59,0,0,1-1.49-3.79V68.47a4,4,0,0,1,8,0V81.3L39.83,54.87a4,4,0,1,1,5.68,5.68L19.08,87H31.91a4,4,0,1,1,0,8H11a5.59,5.59,0,0,1-3.78-1.48c-.07-.06-.14-.1-.2-.17S6.92,93.22,6.87,93.16ZM93.73,6.65c-.06-.06-.14-.11-.2-.17A5.59,5.59,0,0,0,89.75,5H68.84a4,4,0,1,0,0,8H81.67L55.24,39.46a4,4,0,1,0,5.68,5.68L87.35,18.7V31.53a4,4,0,1,0,8,0V10.63a5.59,5.59,0,0,0-1.49-3.79C93.83,6.78,93.79,6.71,93.73,6.65Z"/><path class="a" d="M6.87,93.16a5.59,5.59,0,0,1-1.49-3.79V68.47a4,4,0,0,1,8,0V81.3L39.83,54.87a4,4,0,1,1,5.68,5.68L19.08,87H31.91a4,4,0,1,1,0,8H11a5.59,5.59,0,0,1-3.78-1.48c-.07-.06-.14-.1-.2-.17S6.92,93.22,6.87,93.16ZM93.73,6.65c-.06-.06-.14-.11-.2-.17A5.59,5.59,0,0,0,89.75,5H68.84a4,4,0,1,0,0,8H81.67L55.24,39.46a4,4,0,1,0,5.68,5.68L87.35,18.7V31.53a4,4,0,1,0,8,0V10.63a5.59,5.59,0,0,0-1.49-3.79C93.83,6.78,93.79,6.71,93.73,6.65Z"/></svg>