<svg xmlns="http://www.w3.org/2000/svg" width="100" height="100" viewBox="0 0 100 100"><defs><style>.a{fill:#e0ff12;}</style></defs><title>Zeichenfläche 1 Kopie 4</title><path class="a" d="M45.66,44.66c-.06.06-.14.11-.2.17a5.59,5.59,0,0,1-3.78,1.48H20.78a4,4,0,1,1,0-8H33.61L7.18,11.85a4,4,0,0,1,5.68-5.68L39.28,32.61V19.78a4,4,0,1,1,8,0v20.9a5.59,5.59,0,0,1-1.49,3.79C45.76,44.53,45.72,44.6,45.66,44.66ZM56.18,55.54a5.59,5.59,0,0,0-1.49,3.79v20.9a4,4,0,0,0,8,0V67.39L89.15,93.82a4,4,0,0,0,5.68-5.68L68.39,61.72H81.22a4,4,0,1,0,0-8H60.32a5.59,5.59,0,0,0-3.78,1.48c-.07.06-.14.1-.2.17S56.24,55.47,56.18,55.54Z"/></svg>