<svg xmlns="http://www.w3.org/2000/svg" width="100" height="100" viewBox="0 0 100 100"><defs><style>.a{fill:#e0ff12;}</style></defs><title>Zeichenfläche 1 Kopie 3</title><path class="a" d="M6.49,93.16A5.59,5.59,0,0,1,5,89.37V68.47a4,4,0,0,1,8,0V81.3L39.46,54.87a4,4,0,1,1,5.68,5.68L18.7,87H31.53a4,4,0,1,1,0,8H10.63a5.59,5.59,0,0,1-3.78-1.48c-.07-.06-.14-.1-.2-.17S6.55,93.22,6.49,93.16ZM93.35,6.65c-.06-.06-.14-.11-.2-.17A5.59,5.59,0,0,0,89.37,5H68.47a4,4,0,1,0,0,8H81.3L54.87,39.46a4,4,0,1,0,5.68,5.68L87,18.7V31.53a4,4,0,1,0,8,0V10.63a5.59,5.59,0,0,0-1.49-3.79C93.45,6.78,93.41,6.71,93.35,6.65Z"/></svg>